<?xml version="1.0" encoding="utf-8"?>
<!-- Generator: Adobe Illustrator 24.1.1, SVG Export Plug-In . SVG Version: 6.00 Build 0)  -->
<svg version="1.1" id="Layer_1" xmlns="http://www.w3.org/2000/svg" xmlns:xlink="http://www.w3.org/1999/xlink" x="0px" y="0px"
	 viewBox="0 0 50 50" style="enable-background:new 0 0 50 50;" xml:space="preserve">
<style type="text/css">
	.st0{fill:#E83A3A;}
</style>
<path class="st0" d="M48.83,27.05c0,0,0,0.01-0.01,0.02c-0.04,0.1-0.1,0.2-0.17,0.3c-0.02,0.03-0.04,0.05-0.06,0.08
	c-0.06,0.08-0.13,0.15-0.2,0.22c-0.01,0.01-0.01,0.01-0.02,0.02L25.6,48.39c-0.36,0.33-0.82,0.49-1.27,0.49
	c-0.52,0-1.03-0.21-1.4-0.62c-0.71-0.77-0.65-1.97,0.12-2.67l21.31-19.38L24.01,5.86c-0.74-0.74-0.74-1.94,0-2.68s1.94-0.74,2.68,0
	l21.76,21.76C49.01,25.51,49.14,26.36,48.83,27.05z"/>
<path class="st0" d="M48.39,27.67c0.07-0.07,0.14-0.14,0.2-0.22c-0.04,0.06-0.09,0.12-0.14,0.17
	C48.43,27.64,48.41,27.66,48.39,27.67z"/>
<path class="st0" d="M26.68,26.61c-0.02,0.03-0.04,0.05-0.06,0.08c-0.06,0.08-0.13,0.15-0.2,0.22c-0.01,0.01-0.01,0.01-0.02,0.02
	L3.63,47.63c-0.36,0.33-0.82,0.49-1.27,0.49c-0.52,0-1.03-0.21-1.4-0.62c-0.71-0.77-0.65-1.97,0.12-2.67l21.31-19.38L2.04,5.1
	c-0.74-0.74-0.74-1.94,0-2.68c0.74-0.74,1.94-0.74,2.68,0l21.76,21.76C27.14,24.84,27.21,25.87,26.68,26.61z"/>
<path class="st0" d="M26.62,26.69c-0.04,0.06-0.09,0.12-0.14,0.17c-0.02,0.02-0.04,0.04-0.06,0.05
	C26.49,26.84,26.56,26.77,26.62,26.69z"/>
</svg>
