<?xml version="1.0" encoding="utf-8"?>
<!-- Generator: Adobe Illustrator 24.1.1, SVG Export Plug-In . SVG Version: 6.00 Build 0)  -->
<svg version="1.1" id="Layer_1" xmlns="http://www.w3.org/2000/svg" xmlns:xlink="http://www.w3.org/1999/xlink" x="0px" y="0px"
	 viewBox="0 0 151 50" style="enable-background:new 0 0 151 50;" xml:space="preserve">
<style type="text/css">
	.st0{fill:#E83A3A;}
</style>
<g>
	<path d="M51.34,10.55l-0.16,1.16c-0.28-0.41-0.65-0.76-1.11-1.06c-0.5-0.32-1.15-0.48-1.96-0.48c-0.76,0-1.46,0.19-2.11,0.56
		s-1.17,0.9-1.56,1.59s-0.59,1.51-0.59,2.47c0,0.97,0.19,1.79,0.56,2.45c0.37,0.65,0.88,1.15,1.53,1.48c0.65,0.34,1.37,0.5,2.17,0.5
		c0.49,0,0.93-0.07,1.31-0.22c0.38-0.14,0.71-0.32,1-0.54c0.28-0.21,0.5-0.41,0.65-0.58c0.03-0.04,0.07-0.07,0.09-0.11V19h2.26
		v-8.45H51.34z M51.16,15.59c-0.1,0.37-0.27,0.69-0.5,0.97c-0.22,0.27-0.5,0.48-0.83,0.62c-0.34,0.14-0.7,0.21-1.1,0.21
		c-0.48,0-0.92-0.12-1.31-0.36c-0.4-0.24-0.71-0.57-0.95-0.98c-0.24-0.42-0.36-0.88-0.36-1.38c0-0.52,0.11-0.98,0.34-1.38
		c0.23-0.4,0.53-0.71,0.92-0.94c0.38-0.23,0.81-0.34,1.28-0.34c0.4,0,0.77,0.07,1.11,0.22c0.34,0.15,0.63,0.35,0.87,0.61
		c0.25,0.26,0.43,0.56,0.53,0.91V15.59z"/>
	<path d="M64.79,12.71V19h-2.24v-5.47c-0.01-0.43-0.13-0.77-0.36-1.03c-0.22-0.26-0.58-0.4-1.08-0.41c-0.45,0-0.86,0.14-1.22,0.41
		c-0.37,0.27-0.65,0.65-0.84,1.12c-0.2,0.47-0.29,1.02-0.29,1.65V19h-2.24v-8.45h2l0.17,1.53c0.28-0.57,0.7-1.01,1.26-1.36
		c0.57-0.35,1.26-0.53,2.06-0.53c0.79,0,1.45,0.24,1.97,0.71C64.51,11.38,64.78,11.98,64.79,12.71z"/>
	<path d="M76.16,12.71V19h-2.24v-5.47c-0.01-0.43-0.13-0.77-0.36-1.03c-0.22-0.26-0.58-0.4-1.08-0.41c-0.45,0-0.86,0.14-1.23,0.41
		c-0.36,0.27-0.64,0.65-0.83,1.12c-0.2,0.47-0.29,1.02-0.29,1.65V19h-2.24v-8.45h2l0.17,1.53c0.28-0.57,0.69-1.01,1.25-1.36
		c0.58-0.35,1.27-0.53,2.07-0.53c0.79,0,1.44,0.24,1.97,0.71C75.88,11.38,76.15,11.98,76.16,12.71z"/>
	<path d="M84.31,17.13c-0.32,0.12-0.65,0.18-1,0.18c-0.49,0-0.93-0.11-1.32-0.33c-0.32-0.19-0.59-0.44-0.8-0.76l6.5-2.19
		c-0.25-1.23-0.76-2.18-1.51-2.85s-1.71-1.01-2.87-1.01c-0.88,0-1.68,0.21-2.41,0.61c-0.72,0.41-1.3,0.95-1.72,1.63
		c-0.43,0.68-0.64,1.45-0.64,2.3c0,0.88,0.18,1.66,0.56,2.34c0.37,0.68,0.91,1.21,1.62,1.59c0.72,0.39,1.56,0.58,2.53,0.58
		c0.5,0,1-0.08,1.53-0.25c0.53-0.16,1.01-0.39,1.45-0.67l-1.02-1.65C84.93,16.85,84.63,17.01,84.31,17.13z M80.73,14.57
		c0-0.52,0.11-0.98,0.31-1.37c0.21-0.39,0.49-0.7,0.85-0.93c0.36-0.23,0.78-0.34,1.24-0.34c0.59,0,1.05,0.15,1.38,0.45
		c0.3,0.27,0.53,0.59,0.67,0.96l-4.43,1.6C80.74,14.82,80.73,14.7,80.73,14.57z"/>
	<path d="M89.91,3.42h2.24V19h-2.24V3.42z"/>
	<path d="M95.12,7.5c0-0.33,0.13-0.61,0.4-0.84c0.27-0.23,0.56-0.34,0.88-0.34s0.61,0.11,0.87,0.34c0.26,0.23,0.39,0.51,0.39,0.86
		c0,0.33-0.13,0.61-0.39,0.84s-0.55,0.34-0.87,0.34s-0.61-0.11-0.88-0.34C95.25,8.13,95.12,7.84,95.12,7.5z M95.22,10.55h2.24V19
		h-2.24V10.55z"/>
	<path d="M102.53,10.55l0.2,1.82l-0.06-0.24c0.28-0.59,0.71-1.06,1.29-1.41s1.27-0.53,2.07-0.53c0.79,0,1.44,0.24,1.97,0.71
		c0.53,0.47,0.79,1.08,0.81,1.81V19h-2.24v-5.47c-0.01-0.43-0.13-0.77-0.36-1.03c-0.23-0.26-0.59-0.4-1.08-0.41
		c-0.45,0-0.86,0.14-1.23,0.41c-0.37,0.27-0.65,0.65-0.84,1.12c-0.19,0.47-0.29,1.02-0.29,1.65V19h-2.24v-8.45H102.53z"/>
	<path d="M116.96,17.13c-0.32,0.12-0.65,0.18-1,0.18c-0.49,0-0.93-0.11-1.32-0.33c-0.33-0.19-0.59-0.44-0.8-0.76l6.49-2.19
		c-0.25-1.23-0.75-2.18-1.5-2.85c-0.76-0.67-1.71-1.01-2.87-1.01c-0.88,0-1.68,0.21-2.41,0.61c-0.72,0.41-1.3,0.95-1.73,1.63
		c-0.42,0.68-0.64,1.45-0.64,2.3c0,0.88,0.19,1.66,0.56,2.34c0.38,0.68,0.92,1.21,1.63,1.59c0.71,0.39,1.56,0.58,2.53,0.58
		c0.49,0,1-0.08,1.53-0.25c0.52-0.16,1.01-0.39,1.45-0.67l-1.02-1.65C117.58,16.85,117.28,17.01,116.96,17.13z M113.38,14.57
		c0-0.52,0.1-0.98,0.31-1.37c0.21-0.39,0.49-0.7,0.85-0.93c0.36-0.23,0.77-0.34,1.24-0.34c0.59,0,1.05,0.15,1.38,0.45
		c0.3,0.27,0.53,0.59,0.67,0.96l-4.43,1.59C113.39,14.82,113.38,14.7,113.38,14.57z"/>
	<path d="M51.66,34.53l-0.19,0.97c-0.28-0.38-0.7-0.69-1.25-0.95c-0.58-0.27-1.25-0.4-1.99-0.4c-0.76,0-1.47,0.2-2.14,0.59
		c-0.67,0.39-1.21,0.93-1.62,1.62c-0.41,0.68-0.62,1.47-0.62,2.35c0,0.86,0.19,1.63,0.58,2.3c0.39,0.68,0.91,1.21,1.56,1.6
		c0.65,0.39,1.36,0.59,2.14,0.59c0.89,0,1.63-0.19,2.22-0.56c0.49-0.3,0.86-0.66,1.1-1.07l-0.01,1.41c0.02,0.48-0.09,0.89-0.33,1.22
		c-0.23,0.33-0.55,0.59-0.95,0.78c-0.41,0.19-0.89,0.28-1.43,0.28c-0.62,0-1.14-0.13-1.57-0.37c-0.43-0.25-0.84-0.55-1.23-0.91
		l-1.3,1.54c0.32,0.29,0.67,0.56,1.05,0.82c0.38,0.25,0.82,0.46,1.31,0.63c0.49,0.16,1.08,0.25,1.76,0.25
		c0.98,0,1.84-0.19,2.58-0.57s1.32-0.89,1.74-1.51c0.42-0.63,0.63-1.34,0.63-2.14v-8.47H51.66z M51.46,39.58
		c-0.12,0.36-0.31,0.68-0.57,0.94c-0.26,0.27-0.56,0.48-0.91,0.62c-0.36,0.15-0.75,0.22-1.19,0.22c-0.51,0-0.97-0.12-1.37-0.36
		c-0.41-0.24-0.73-0.56-0.96-0.98c-0.23-0.41-0.35-0.87-0.35-1.38c0-0.52,0.12-0.97,0.35-1.37c0.23-0.4,0.55-0.72,0.96-0.94
		c0.4-0.23,0.86-0.34,1.37-0.34c0.42,0,0.82,0.07,1.19,0.21c0.36,0.14,0.67,0.34,0.92,0.61c0.26,0.26,0.44,0.57,0.56,0.92V39.58z"/>
	<path d="M64.91,34.53v8.45h-2.02l-0.15-1.52c-0.17,0.37-0.41,0.69-0.71,0.96c-0.32,0.29-0.69,0.52-1.12,0.68
		c-0.42,0.16-0.9,0.24-1.43,0.24c-0.76,0-1.39-0.24-1.89-0.71c-0.5-0.47-0.76-1.08-0.79-1.83v-6.27h2.24v5.45
		c0.01,0.44,0.12,0.79,0.34,1.05c0.21,0.26,0.55,0.39,1.02,0.39c0.43,0,0.82-0.13,1.16-0.41c0.34-0.27,0.61-0.65,0.81-1.13
		c0.2-0.48,0.3-1.02,0.3-1.62v-3.73H64.91z"/>
	<path d="M68.83,30.81h2.24v3.72h2.2v1.74h-2.2v6.71h-2.24v-6.71h-1.46v-1.74h1.46V30.81z"/>
	<path d="M76.28,30.81h2.24v3.72h2.2v1.74h-2.2v6.71h-2.24v-6.71h-1.46v-1.74h1.46V30.81z"/>
	<path d="M82.21,38.67c0-0.85,0.2-1.62,0.61-2.3c0.41-0.68,0.97-1.22,1.69-1.62c0.72-0.4,1.55-0.6,2.48-0.6
		c0.93,0,1.75,0.2,2.45,0.6c0.7,0.4,1.24,0.94,1.63,1.62c0.39,0.68,0.58,1.44,0.58,2.28c0,0.87-0.19,1.64-0.58,2.33
		c-0.39,0.69-0.93,1.23-1.63,1.63c-0.7,0.4-1.54,0.6-2.51,0.6c-0.91,0-1.72-0.18-2.43-0.55c-0.71-0.37-1.27-0.89-1.68-1.57
		C82.42,40.4,82.21,39.6,82.21,38.67z M84.47,38.68c0,0.51,0.11,0.96,0.32,1.36c0.21,0.4,0.5,0.72,0.87,0.96
		c0.37,0.24,0.78,0.36,1.25,0.36c0.49,0,0.92-0.12,1.29-0.36c0.37-0.24,0.66-0.56,0.87-0.96c0.21-0.4,0.32-0.85,0.32-1.36
		c0-0.51-0.11-0.96-0.32-1.36s-0.5-0.72-0.87-0.96c-0.37-0.24-0.79-0.36-1.27-0.36c-0.47,0-0.89,0.12-1.26,0.36
		c-0.37,0.24-0.67,0.56-0.88,0.97S84.47,38.19,84.47,38.68z"/>
	<path d="M96,34.53l0.22,2.4l-0.06-0.34c0.21-0.51,0.53-0.94,0.96-1.3s0.86-0.64,1.3-0.84c0.44-0.2,0.81-0.3,1.1-0.3l-0.14,2.24
		c-0.63-0.05-1.18,0.06-1.65,0.34s-0.84,0.66-1.1,1.13s-0.39,0.97-0.39,1.49v3.64h-2.22v-8.45H96z"/>
	<path d="M115.5,36.69v6.29h-2.22v-5.41c-0.01-0.42-0.1-0.76-0.26-1.03c-0.16-0.28-0.46-0.43-0.9-0.45c-0.48,0-0.89,0.15-1.23,0.45
		c-0.35,0.3-0.62,0.68-0.81,1.16c-0.2,0.47-0.3,0.97-0.31,1.48v3.8h-2.24v-5.41c-0.01-0.42-0.11-0.76-0.28-1.03
		c-0.17-0.28-0.48-0.43-0.92-0.45c-0.47,0-0.87,0.15-1.22,0.45c-0.35,0.3-0.61,0.68-0.79,1.16c-0.18,0.47-0.27,0.97-0.27,1.5v3.78
		h-2.24v-8.45h2l0.17,1.49c0.34-0.58,0.76-1.03,1.27-1.35c0.55-0.35,1.18-0.52,1.9-0.52c0.48,0,0.9,0.07,1.26,0.21
		c0.36,0.14,0.66,0.35,0.91,0.62c0.23,0.26,0.39,0.58,0.46,0.96c0.32-0.55,0.74-0.98,1.25-1.29c0.54-0.33,1.13-0.5,1.75-0.5
		c0.82,0,1.47,0.23,1.96,0.7C115.23,35.31,115.49,35.93,115.5,36.69z"/>
	<path d="M121.12,43.16c-0.64,0-1.25-0.11-1.83-0.34c-0.58-0.23-1.06-0.55-1.45-0.98l0.94-1.28c0.37,0.35,0.74,0.61,1.11,0.78
		c0.37,0.17,0.72,0.26,1.05,0.26c0.25,0,0.48-0.03,0.69-0.09c0.21-0.06,0.37-0.16,0.49-0.29c0.12-0.13,0.18-0.31,0.18-0.52
		c0-0.28-0.09-0.49-0.27-0.64s-0.42-0.27-0.71-0.37c-0.29-0.1-0.6-0.2-0.92-0.31c-0.73-0.23-1.28-0.56-1.64-1
		c-0.36-0.44-0.54-0.95-0.54-1.54c0-0.43,0.11-0.85,0.34-1.26s0.57-0.75,1.03-1.01c0.46-0.26,1.05-0.39,1.77-0.39
		c0.63,0,1.18,0.07,1.66,0.22s0.92,0.38,1.34,0.7l-0.86,1.36c-0.24-0.23-0.52-0.41-0.85-0.54c-0.33-0.13-0.62-0.21-0.89-0.22
		c-0.24-0.01-0.45,0.02-0.64,0.1s-0.34,0.18-0.46,0.31c-0.12,0.13-0.18,0.28-0.18,0.45c-0.01,0.27,0.08,0.48,0.28,0.64
		c0.2,0.16,0.46,0.29,0.77,0.38c0.31,0.09,0.62,0.19,0.91,0.3c0.41,0.13,0.78,0.3,1.09,0.5c0.31,0.2,0.56,0.45,0.75,0.76
		c0.19,0.31,0.28,0.68,0.28,1.12c0,0.51-0.13,0.98-0.38,1.42s-0.63,0.8-1.13,1.07C122.54,43.02,121.9,43.16,121.12,43.16z"/>
	<path d="M132.1,41.1c-0.31,0.12-0.65,0.18-0.99,0.18c-0.5,0-0.94-0.11-1.32-0.33c-0.33-0.19-0.6-0.44-0.81-0.76l6.5-2.19
		c-0.25-1.22-0.75-2.17-1.51-2.84c-0.75-0.67-1.71-1.01-2.86-1.01c-0.88,0-1.69,0.2-2.41,0.61c-0.73,0.41-1.3,0.95-1.73,1.63
		c-0.43,0.68-0.64,1.44-0.64,2.29c0,0.88,0.19,1.66,0.56,2.34c0.37,0.68,0.92,1.21,1.63,1.6c0.71,0.39,1.55,0.58,2.53,0.58
		c0.49,0,1-0.08,1.52-0.25c0.53-0.17,1.01-0.39,1.45-0.67L133,40.62C132.72,40.82,132.42,40.98,132.1,41.1z M128.53,38.54
		c0-0.51,0.1-0.97,0.31-1.36c0.2-0.4,0.49-0.71,0.85-0.93c0.36-0.23,0.77-0.34,1.24-0.34c0.58,0,1.04,0.15,1.37,0.45
		c0.31,0.27,0.54,0.59,0.68,0.96l-4.43,1.59C128.54,38.79,128.53,38.67,128.53,38.54z"/>
	<path d="M145.97,36.69v6.29h-2.24v-5.47c-0.01-0.43-0.13-0.77-0.36-1.03c-0.22-0.26-0.58-0.4-1.08-0.41
		c-0.45,0-0.86,0.13-1.22,0.41c-0.37,0.27-0.65,0.64-0.84,1.12c-0.2,0.47-0.29,1.02-0.29,1.64v3.74h-2.24v-8.45h2l0.17,1.53
		c0.28-0.57,0.7-1.02,1.26-1.36c0.58-0.35,1.26-0.53,2.06-0.53c0.79,0,1.45,0.24,1.97,0.71C145.69,35.35,145.96,35.95,145.97,36.69z
		"/>
</g>
<path class="st0" d="M38.11,29.48l-4.55-4.55l4.55-4.55c0.58-0.59,0.58-1.54,0-2.13l-17.1-17.1c-0.59-0.58-1.54-0.58-2.12,0
	l-17.1,17.1c-0.59,0.59-0.59,1.54,0,2.13l4.55,4.55l-4.55,4.55c-0.29,0.28-0.44,0.66-0.44,1.06c0,0.39,0.15,0.78,0.44,1.06
	l17.1,17.1c0.29,0.29,0.67,0.44,1.06,0.44c0.38,0,0.76-0.15,1.06-0.44l17.1-17.1c0.28-0.28,0.44-0.67,0.44-1.06
	C38.55,30.14,38.39,29.76,38.11,29.48z M4.97,19.31L19.95,4.34l14.97,14.97l-3.49,3.49L21.01,12.38c-0.59-0.59-1.54-0.59-2.12,0
	L8.47,22.81L4.97,19.31z M29.31,24.93l-9.36,9.36l-9.36-9.36l9.36-9.37L29.31,24.93z M19.95,45.51L4.97,30.54l3.49-3.49l10.43,10.43
	c0.29,0.29,0.67,0.44,1.06,0.44c0.38,0,0.76-0.15,1.06-0.44l10.43-10.43l3.48,3.49L19.95,45.51z"/>
</svg>
