<?xml version="1.0" encoding="utf-8"?>
<!-- Generator: Adobe Illustrator 24.1.1, SVG Export Plug-In . SVG Version: 6.00 Build 0)  -->
<svg version="1.1" id="Layer_1" xmlns="http://www.w3.org/2000/svg" xmlns:xlink="http://www.w3.org/1999/xlink" x="0px" y="0px"
	 viewBox="0 0 151 50" style="enable-background:new 0 0 151 50;" xml:space="preserve">
<style type="text/css">
	.st0{fill:#E83A3A;}
</style>
<g>
	<g>
		<path d="M48.11,19.22c-0.8,0-1.52-0.17-2.17-0.5c-0.65-0.33-1.16-0.83-1.53-1.49s-0.56-1.47-0.56-2.45c0-0.96,0.2-1.78,0.59-2.47
			c0.39-0.69,0.91-1.22,1.56-1.59c0.65-0.37,1.35-0.56,2.11-0.56c0.81,0,1.46,0.16,1.96,0.48c0.49,0.32,0.89,0.7,1.18,1.14
			l-0.12,0.32l0.22-1.56h2.08V19h-2.26v-2.06l0.22,0.54c-0.05,0.08-0.16,0.21-0.31,0.39s-0.37,0.38-0.66,0.59
			c-0.29,0.21-0.62,0.39-1,0.54C49.04,19.15,48.6,19.22,48.11,19.22z M48.73,17.39c0.4,0,0.77-0.07,1.1-0.21
			c0.33-0.14,0.61-0.35,0.84-0.62c0.23-0.27,0.39-0.6,0.5-0.97v-1.84c-0.11-0.35-0.28-0.65-0.53-0.91s-0.54-0.46-0.88-0.61
			c-0.34-0.15-0.71-0.22-1.11-0.22c-0.47,0-0.89,0.11-1.28,0.34c-0.39,0.23-0.69,0.54-0.92,0.94c-0.23,0.4-0.34,0.86-0.34,1.38
			c0,0.51,0.12,0.97,0.36,1.38s0.56,0.74,0.95,0.98C47.81,17.27,48.25,17.39,48.73,17.39z"/>
		<path d="M58.52,10.55l0.2,1.82l-0.06-0.24c0.28-0.59,0.71-1.06,1.29-1.41c0.58-0.35,1.27-0.53,2.07-0.53
			c0.79,0,1.44,0.24,1.97,0.71c0.53,0.47,0.8,1.08,0.81,1.81V19h-2.24v-5.47c-0.01-0.43-0.13-0.77-0.36-1.03
			c-0.23-0.26-0.59-0.4-1.08-0.41c-0.45,0-0.86,0.14-1.23,0.41c-0.37,0.27-0.65,0.65-0.84,1.12c-0.19,0.47-0.29,1.02-0.29,1.65V19
			h-2.24v-8.45H58.52z"/>
		<path d="M69.89,10.55l0.2,1.82l-0.06-0.24c0.28-0.59,0.71-1.06,1.29-1.41c0.58-0.35,1.27-0.53,2.07-0.53
			c0.79,0,1.44,0.24,1.97,0.71c0.53,0.47,0.8,1.08,0.81,1.81V19h-2.24v-5.47c-0.01-0.43-0.13-0.77-0.36-1.03
			c-0.23-0.26-0.59-0.4-1.08-0.41c-0.45,0-0.86,0.14-1.23,0.41c-0.37,0.27-0.65,0.65-0.84,1.12c-0.19,0.47-0.29,1.02-0.29,1.65V19
			h-2.24v-8.45H69.89z"/>
		<path d="M83.25,19.22c-0.97,0-1.82-0.19-2.53-0.58c-0.71-0.39-1.26-0.92-1.63-1.6s-0.56-1.46-0.56-2.34c0-0.85,0.21-1.62,0.64-2.3
			c0.43-0.68,1-1.22,1.73-1.63c0.73-0.41,1.53-0.61,2.41-0.61c1.16,0,2.11,0.34,2.87,1.01c0.75,0.67,1.26,1.62,1.51,2.85l-6.81,2.3
			l-0.5-1.26l5.29-1.9l-0.44,0.28c-0.15-0.41-0.39-0.77-0.72-1.07c-0.33-0.3-0.79-0.45-1.38-0.45c-0.47,0-0.88,0.11-1.24,0.34
			c-0.36,0.23-0.64,0.54-0.85,0.93s-0.31,0.85-0.31,1.37c0,0.57,0.11,1.06,0.34,1.47c0.23,0.41,0.53,0.72,0.92,0.94
			c0.39,0.22,0.83,0.33,1.32,0.33c0.35,0,0.68-0.06,1-0.18c0.32-0.12,0.62-0.28,0.9-0.48l1.02,1.66c-0.44,0.28-0.92,0.5-1.45,0.67
			C84.25,19.14,83.75,19.22,83.25,19.22z"/>
		<path d="M89.91,3.42h2.24V19h-2.24V3.42z"/>
		<path d="M95.12,7.5c0-0.33,0.13-0.61,0.4-0.84c0.27-0.23,0.56-0.34,0.88-0.34s0.61,0.11,0.87,0.34c0.26,0.23,0.39,0.51,0.39,0.86
			c0,0.33-0.13,0.61-0.39,0.84s-0.55,0.34-0.87,0.34s-0.61-0.11-0.88-0.34C95.25,8.13,95.12,7.84,95.12,7.5z M95.22,10.55h2.24V19
			h-2.24V10.55z"/>
		<path d="M102.53,10.55l0.2,1.82l-0.06-0.24c0.28-0.59,0.71-1.06,1.29-1.41s1.27-0.53,2.07-0.53c0.79,0,1.44,0.24,1.97,0.71
			c0.53,0.47,0.79,1.08,0.81,1.81V19h-2.24v-5.47c-0.01-0.43-0.13-0.77-0.36-1.03c-0.23-0.26-0.59-0.4-1.08-0.41
			c-0.45,0-0.86,0.14-1.23,0.41c-0.37,0.27-0.65,0.65-0.84,1.12c-0.19,0.47-0.29,1.02-0.29,1.65V19h-2.24v-8.45H102.53z"/>
		<path d="M115.9,19.22c-0.97,0-1.82-0.19-2.53-0.58c-0.71-0.39-1.26-0.92-1.63-1.6s-0.56-1.46-0.56-2.34c0-0.85,0.21-1.62,0.64-2.3
			c0.43-0.68,1-1.22,1.73-1.63c0.73-0.41,1.53-0.61,2.41-0.61c1.16,0,2.12,0.34,2.87,1.01c0.75,0.67,1.26,1.62,1.51,2.85l-6.81,2.3
			l-0.5-1.26l5.29-1.9l-0.44,0.28c-0.15-0.41-0.39-0.77-0.72-1.07s-0.79-0.45-1.38-0.45c-0.47,0-0.88,0.11-1.24,0.34
			c-0.36,0.23-0.64,0.54-0.85,0.93c-0.21,0.39-0.31,0.85-0.31,1.37c0,0.57,0.11,1.06,0.34,1.47s0.53,0.72,0.92,0.94
			c0.39,0.22,0.83,0.33,1.32,0.33c0.35,0,0.68-0.06,1-0.18c0.32-0.12,0.62-0.28,0.9-0.48l1.02,1.66c-0.44,0.28-0.92,0.5-1.45,0.67
			C116.9,19.14,116.39,19.22,115.9,19.22z"/>
		<path d="M48.75,47.22c-0.68,0-1.27-0.08-1.76-0.25c-0.49-0.17-0.93-0.38-1.31-0.63c-0.38-0.25-0.73-0.53-1.05-0.82l1.3-1.54
			c0.39,0.36,0.8,0.66,1.23,0.91c0.43,0.25,0.96,0.37,1.57,0.37c0.55,0,1.02-0.09,1.43-0.28s0.73-0.45,0.96-0.78
			s0.34-0.74,0.33-1.22l0.02-2.12l0.14,0.44c-0.24,0.52-0.66,0.97-1.25,1.34s-1.34,0.56-2.23,0.56c-0.77,0-1.49-0.2-2.14-0.59
			c-0.65-0.39-1.17-0.92-1.56-1.6s-0.58-1.44-0.58-2.31c0-0.88,0.21-1.66,0.62-2.35c0.41-0.69,0.95-1.22,1.62-1.62
			c0.67-0.39,1.38-0.59,2.14-0.59c0.75,0,1.41,0.13,1.99,0.4c0.58,0.27,1.02,0.6,1.31,1l-0.12,0.32l0.26-1.34h2.04V43
			c0,0.8-0.21,1.51-0.63,2.14c-0.42,0.63-1,1.13-1.74,1.51C50.59,47.03,49.73,47.22,48.75,47.22z M46.11,38.64
			c0,0.51,0.12,0.97,0.35,1.38c0.23,0.41,0.55,0.74,0.96,0.98c0.41,0.24,0.86,0.36,1.37,0.36c0.44,0,0.84-0.07,1.19-0.22
			c0.35-0.15,0.66-0.35,0.92-0.62c0.26-0.27,0.45-0.58,0.57-0.94v-1.86c-0.12-0.35-0.31-0.65-0.56-0.92s-0.56-0.47-0.93-0.61
			c-0.37-0.14-0.76-0.21-1.19-0.21c-0.51,0-0.96,0.11-1.37,0.34c-0.41,0.23-0.73,0.54-0.96,0.94
			C46.23,37.67,46.11,38.13,46.11,38.64z"/>
		<path d="M59.48,43.34c-0.76,0-1.39-0.24-1.89-0.71s-0.76-1.08-0.79-1.83v-6.27h2.24v5.46c0.01,0.44,0.13,0.79,0.34,1.05
			c0.21,0.26,0.55,0.39,1.02,0.39c0.44,0,0.83-0.14,1.17-0.41c0.34-0.27,0.61-0.65,0.81-1.13c0.2-0.48,0.3-1.02,0.3-1.62v-3.74h2.24
			v8.45h-2.02l-0.18-1.86l0.06,0.28c-0.17,0.39-0.42,0.73-0.74,1.02s-0.69,0.52-1.12,0.68C60.49,43.26,60.01,43.34,59.48,43.34z"/>
		<path d="M68.83,30.81h2.24v3.72h2.2v1.74h-2.2v6.71h-2.24v-6.71h-1.46v-1.74h1.46V30.81z"/>
		<path d="M76.28,30.81h2.24v3.72h2.2v1.74h-2.2v6.71h-2.24v-6.71h-1.46v-1.74h1.46V30.81z"/>
		<path d="M82.21,38.67c0-0.85,0.2-1.62,0.61-2.3c0.41-0.68,0.97-1.22,1.69-1.62c0.72-0.4,1.55-0.6,2.48-0.6
			c0.93,0,1.75,0.2,2.45,0.6c0.7,0.4,1.24,0.94,1.63,1.62c0.39,0.68,0.58,1.44,0.58,2.28c0,0.87-0.19,1.64-0.58,2.33
			c-0.39,0.69-0.93,1.23-1.63,1.63c-0.7,0.4-1.54,0.6-2.51,0.6c-0.91,0-1.72-0.18-2.43-0.55c-0.71-0.37-1.27-0.89-1.68-1.57
			C82.42,40.4,82.21,39.6,82.21,38.67z M84.47,38.68c0,0.51,0.11,0.96,0.32,1.36c0.21,0.4,0.5,0.72,0.87,0.96
			c0.37,0.24,0.78,0.36,1.25,0.36c0.49,0,0.92-0.12,1.29-0.36c0.37-0.24,0.66-0.56,0.87-0.96c0.21-0.4,0.32-0.85,0.32-1.36
			c0-0.51-0.11-0.96-0.32-1.36s-0.5-0.72-0.87-0.96c-0.37-0.24-0.79-0.36-1.27-0.36c-0.47,0-0.89,0.12-1.26,0.36
			c-0.37,0.24-0.67,0.56-0.88,0.97S84.47,38.19,84.47,38.68z"/>
		<path d="M96,34.53l0.22,2.4l-0.06-0.34c0.21-0.51,0.53-0.94,0.96-1.3s0.86-0.64,1.3-0.84c0.44-0.2,0.81-0.3,1.1-0.3l-0.14,2.24
			c-0.63-0.05-1.18,0.06-1.65,0.34s-0.84,0.66-1.1,1.13s-0.39,0.97-0.39,1.49v3.64h-2.22v-8.45H96z"/>
		<path d="M103.81,34.53l0.2,1.72l-0.08-0.14c0.33-0.61,0.77-1.09,1.32-1.44c0.55-0.35,1.18-0.52,1.9-0.52
			c0.48,0,0.9,0.07,1.26,0.21c0.36,0.14,0.66,0.35,0.91,0.62c0.25,0.27,0.4,0.61,0.47,1.01l-0.08,0.06c0.33-0.6,0.77-1.07,1.32-1.4
			s1.13-0.5,1.76-0.5c0.81,0,1.47,0.23,1.96,0.7c0.49,0.47,0.75,1.08,0.76,1.84v6.29h-2.22v-5.42c-0.01-0.41-0.1-0.76-0.26-1.03
			c-0.16-0.27-0.46-0.42-0.9-0.45c-0.48,0-0.89,0.15-1.24,0.45c-0.35,0.3-0.62,0.69-0.81,1.16c-0.19,0.47-0.3,0.97-0.31,1.49v3.8
			h-2.24v-5.42c-0.01-0.41-0.11-0.76-0.28-1.03c-0.17-0.27-0.48-0.42-0.92-0.45c-0.47,0-0.87,0.15-1.22,0.45
			c-0.35,0.3-0.61,0.69-0.79,1.16c-0.18,0.47-0.27,0.98-0.27,1.51v3.78h-2.24v-8.45H103.81z"/>
		<path d="M121.12,43.16c-0.64,0-1.25-0.11-1.83-0.34c-0.58-0.23-1.06-0.55-1.45-0.98l0.94-1.28c0.37,0.35,0.74,0.61,1.11,0.78
			c0.37,0.17,0.72,0.26,1.05,0.26c0.25,0,0.48-0.03,0.69-0.09c0.21-0.06,0.37-0.16,0.49-0.29c0.12-0.13,0.18-0.31,0.18-0.52
			c0-0.28-0.09-0.49-0.27-0.64s-0.42-0.27-0.71-0.37c-0.29-0.1-0.6-0.2-0.92-0.31c-0.73-0.23-1.28-0.56-1.64-1
			c-0.36-0.44-0.54-0.95-0.54-1.54c0-0.43,0.11-0.85,0.34-1.26s0.57-0.75,1.03-1.01c0.46-0.26,1.05-0.39,1.77-0.39
			c0.63,0,1.18,0.07,1.66,0.22s0.92,0.38,1.34,0.7l-0.86,1.36c-0.24-0.23-0.52-0.41-0.85-0.54c-0.33-0.13-0.62-0.21-0.89-0.22
			c-0.24-0.01-0.45,0.02-0.64,0.1s-0.34,0.18-0.46,0.31c-0.12,0.13-0.18,0.28-0.18,0.45c-0.01,0.27,0.08,0.48,0.28,0.64
			c0.2,0.16,0.46,0.29,0.77,0.38c0.31,0.09,0.62,0.19,0.91,0.3c0.41,0.13,0.78,0.3,1.09,0.5c0.31,0.2,0.56,0.45,0.75,0.76
			c0.19,0.31,0.28,0.68,0.28,1.12c0,0.51-0.13,0.98-0.38,1.42s-0.63,0.8-1.13,1.07C122.54,43.02,121.9,43.16,121.12,43.16z"/>
		<path d="M131.05,43.2c-0.97,0-1.82-0.19-2.53-0.58c-0.71-0.39-1.26-0.92-1.63-1.6s-0.56-1.46-0.56-2.34c0-0.85,0.21-1.62,0.64-2.3
			c0.43-0.68,1-1.22,1.73-1.63c0.73-0.41,1.53-0.61,2.41-0.61c1.16,0,2.12,0.34,2.87,1.01c0.75,0.67,1.26,1.62,1.51,2.85l-6.81,2.3
			l-0.5-1.26l5.29-1.9l-0.44,0.28c-0.15-0.41-0.39-0.77-0.72-1.07c-0.33-0.3-0.79-0.45-1.38-0.45c-0.47,0-0.88,0.11-1.24,0.34
			c-0.36,0.23-0.64,0.54-0.85,0.93c-0.21,0.39-0.31,0.85-0.31,1.37c0,0.57,0.11,1.06,0.34,1.47s0.53,0.72,0.92,0.94
			c0.39,0.22,0.83,0.33,1.32,0.33c0.35,0,0.68-0.06,1-0.18c0.32-0.12,0.62-0.28,0.9-0.48l1.02,1.66c-0.44,0.28-0.92,0.5-1.45,0.67
			C132.05,43.12,131.54,43.2,131.05,43.2z"/>
		<path d="M139.7,34.53l0.2,1.82l-0.06-0.24c0.28-0.59,0.71-1.06,1.29-1.41c0.58-0.35,1.27-0.53,2.07-0.53
			c0.79,0,1.44,0.24,1.97,0.71c0.53,0.47,0.8,1.08,0.81,1.81v6.29h-2.24v-5.47c-0.01-0.43-0.13-0.77-0.36-1.03
			c-0.23-0.26-0.59-0.4-1.08-0.41c-0.45,0-0.86,0.14-1.23,0.41c-0.37,0.27-0.65,0.65-0.84,1.12s-0.29,1.02-0.29,1.65v3.74h-2.24
			v-8.45H139.7z"/>
	</g>
</g>
<path class="st0" d="M19.95,37.92c-0.38,0-0.77-0.15-1.06-0.44l-17.1-17.1c-0.59-0.59-0.59-1.54,0-2.12l17.1-17.1
	c0.59-0.59,1.54-0.59,2.12,0l17.1,17.1c0.59,0.59,0.59,1.54,0,2.12l-17.1,17.1C20.71,37.77,20.33,37.92,19.95,37.92z M4.97,19.31
	l14.98,14.98l14.98-14.98L19.95,4.34L4.97,19.31z"/>
<path class="st0" d="M19.95,49.14c-0.38,0-0.77-0.15-1.06-0.44L1.79,31.6c-0.28-0.28-0.44-0.66-0.44-1.06s0.16-0.78,0.44-1.06
	l17.1-17.1c0.59-0.59,1.54-0.59,2.12,0l17.1,17.1c0.28,0.28,0.44,0.66,0.44,1.06s-0.16,0.78-0.44,1.06l-17.1,17.1
	C20.71,48.99,20.33,49.14,19.95,49.14z M4.97,30.54l14.98,14.98l14.98-14.98L19.95,15.56L4.97,30.54z"/>
</svg>
