<?xml version="1.0" encoding="utf-8"?>
<!-- Generator: Adobe Illustrator 24.1.1, SVG Export Plug-In . SVG Version: 6.00 Build 0)  -->
<svg version="1.1" xmlns="http://www.w3.org/2000/svg" xmlns:xlink="http://www.w3.org/1999/xlink" x="0px" y="0px"
	 viewBox="0 0 286 332" style="enable-background:new 0 0 286 332;" xml:space="preserve">
<style type="text/css">
	.st0{display:none;}
	.st1{opacity:0.25;fill:#0000FF;}
	.st2{opacity:0.25;fill:#FF0000;}
	.st3{fill:#FBB03B;}
</style>
<g id="Layer_1" class="st0">
	
		<image style="display:inline;overflow:visible;" width="727" height="969" xlink:href="119065BD.jpg"  transform="matrix(0.5268 0 0 0.5268 -79 -128)">
	</image>
</g>
<g id="BLÅ">
	<path class="st1" d="M130.7,136.63l-0.46-0.89c5.74-3,12.24-6.38,19.29-6.19c3.31,0.09,6.83,1.02,10.46,2.74l-0.43,0.9
		c-3.5-1.66-6.89-2.55-10.06-2.64C142.73,130.36,136.33,133.69,130.7,136.63z"/>
	<path class="st1" d="M89.32,137.45c-3.58-2.43-7.47-3.93-11.25-4.33c-4.22-0.45-8.33,0.47-11.56,2.58
		c-0.38,0.25-0.56,0.59-0.54,0.67l-0.7,0.72c-0.22-0.23-0.33-0.52-0.3-0.84c0.06-0.59,0.57-1.11,0.99-1.38
		c3.43-2.23,7.77-3.2,12.21-2.73c3.94,0.42,7.99,1.97,11.71,4.5L89.32,137.45z"/>
	<path class="st1" d="M78.34,142.85c-0.43,0-0.86-0.03-1.25-0.07c-0.93-0.1-2.12-0.3-3.12-0.95c-1.3-0.86-2.12-2.5-2.07-4.16
		c0.07-2.33,1.83-4.39,4.02-4.68l0.13,0.99c-1.68,0.23-3.1,1.9-3.15,3.72c-0.04,1.33,0.6,2.62,1.62,3.3
		c0.81,0.54,1.85,0.71,2.67,0.79c1.62,0.17,3.81,0.08,4.96-1.37c0.57-0.72,0.84-1.75,0.75-2.91c-0.08-1.1-0.44-2.18-0.79-3.22
		l0.95-0.32c0.37,1.1,0.75,2.24,0.84,3.46c0.1,1.41-0.24,2.69-0.97,3.61C81.81,142.47,79.98,142.85,78.34,142.85z"/>
	<path class="st1" d="M60.56,136.72l-0.91-0.42c0.92-1.96,2.36-3.63,4.18-4.82c2.5-1.64,5.45-2.24,8.27-2.63
		c4.92-0.69,8.62-0.65,12,0.14c4.32,1.01,7.95,3.43,9.97,6.62l-0.85,0.53c-1.88-2.97-5.28-5.22-9.35-6.18
		c-3.25-0.76-6.83-0.8-11.63-0.13c-2.7,0.38-5.52,0.95-7.86,2.48C62.75,133.39,61.39,134.95,60.56,136.72z"/>
	<path class="st1" d="M128.43,134.54l-0.57-0.82c4.01-2.82,8.84-5.81,14.21-6.62c2.78-0.42,5.64-0.24,8.32,0.01
		c1.26,0.12,2.6,0.27,3.93,0.54c2.74,0.56,5.43,1.67,7.77,3.2l-0.55,0.84c-2.24-1.47-4.8-2.53-7.42-3.06
		c-1.28-0.26-2.59-0.4-3.82-0.52c-2.61-0.25-5.4-0.42-8.08-0.02C137.06,128.87,132.35,131.78,128.43,134.54z"/>
	<path class="st1" d="M144.76,139.06c-0.57,0-1.14-0.02-1.7-0.06c-1.11-0.08-2.34-0.28-3.16-1.18c-0.72-0.8-0.86-1.88-0.9-2.73
		c-0.03-0.6-0.02-1.3,0.23-1.97c0.29-0.77,0.88-1.34,1.58-1.51l0.24,0.97c-0.37,0.09-0.71,0.43-0.88,0.89
		c-0.19,0.49-0.19,1.07-0.16,1.56c0.03,0.69,0.14,1.55,0.65,2.11c0.58,0.64,1.58,0.79,2.49,0.85c2.03,0.14,4.06,0.02,6.06-0.37
		c0.3-0.06,0.58-0.12,0.8-0.25c0.31-0.18,0.55-0.53,0.8-0.9c0.32-0.5,0.65-1.03,0.82-1.6c0.34-1.16-0.06-2.53-0.98-3.32l0.65-0.76
		c1.23,1.06,1.74,2.81,1.29,4.36c-0.2,0.7-0.58,1.3-0.94,1.86c-0.3,0.46-0.63,0.93-1.13,1.22c-0.36,0.21-0.75,0.29-1.12,0.37
		C147.86,138.91,146.31,139.06,144.76,139.06z"/>
	<path class="st1" d="M124.58,120.77l-0.98-0.2c0.29-1.45,0.63-2.98,1.26-4.39c0.81-1.84,2.1-3.44,3.71-4.64l0.6,0.8
		c-1.48,1.1-2.65,2.57-3.4,4.25C125.19,117.9,124.88,119.32,124.58,120.77z"/>
	<path class="st1" d="M123.59,121.48l-0.34-0.94c6.76-2.46,13.69-4.77,20.59-6.87c2.84-0.86,5.87-1.75,8.97-2.31
		c6.71-1.21,13.62-0.86,19.49-0.35l-0.09,1c-5.8-0.5-12.63-0.86-19.22,0.33c-3.05,0.55-6.04,1.43-8.86,2.28
		C137.24,116.72,130.33,119.02,123.59,121.48z"/>
	<path class="st1" d="M127.8,112.06l-0.22-0.98c11.19-2.51,23.87-5.35,36.08-3.44c3.42,0.54,6.8,1.44,10.05,2.69l-0.36,0.93
		c-3.18-1.22-6.49-2.11-9.85-2.64C151.49,106.76,138.9,109.57,127.8,112.06z"/>
	<path class="st1" d="M93.92,122.63c-0.79-1.63-0.89-3.43-0.98-5.17c-0.08-1.51-0.16-2.94-0.65-4.26l0.94-0.35
		c0.54,1.47,0.62,3.04,0.71,4.56c0.09,1.72,0.18,3.35,0.88,4.79L93.92,122.63z"/>
	<path class="st1" d="M93.02,122.45c-10.3-3.25-20.99-5.22-31.77-5.84c-1.53-0.09-3.02-0.15-4.49,0.09
		c-2.77,0.45-5.25,1.94-7.65,3.37l-0.1-0.17l-0.15,0.3l-1.06-0.52l0.79-0.47c2.36-1.41,5.04-3.01,8-3.5
		c1.57-0.26,3.19-0.19,4.71-0.1c10.86,0.63,21.64,2.61,32.01,5.88L93.02,122.45z"/>
	<path class="st1" d="M48.04,119.22l-0.76-0.65l2.52-2.97c1.65-1.94,3.7-4.36,6.48-5.37c1.33-0.48,2.74-0.61,3.96-0.7
		c11.01-0.77,21.95,1.39,32.53,3.48L92.56,114c-10.52-2.08-21.39-4.23-32.26-3.47c-1.15,0.08-2.49,0.2-3.69,0.64
		c-2.53,0.92-4.4,3.12-6.05,5.07L48.04,119.22z"/>
	<path class="st1" d="M100.17,188.54c-1.21-0.78-2.31-1.72-3.27-2.8c-0.36-0.41-0.72-0.87-0.86-1.44c-0.16-0.61-0.03-1.41,0.6-1.85
		c0.51-0.35,1.13-0.3,1.61-0.22c1.13,0.2,2.21,0.59,3.2,1.18c0.3,0.18,0.6,0.38,0.89,0.57c0.38,0.26,0.74,0.5,1.13,0.7
		c1.76,0.94,4.11,1.04,6.6,0.3c1.76-0.53,3.45-1.4,5.08-2.25c0.45-0.23,0.89-0.46,1.34-0.69c0.84-0.42,1.68-0.81,2.62-0.88
		c1.02-0.07,2,0.28,2.64,0.95c0.74,0.77,0.95,1.94,0.51,2.83c-0.36,0.74-1.03,1.14-1.67,1.53c-0.32,0.19-0.63,0.38-0.88,0.59
		l-0.65-0.76c0.32-0.27,0.67-0.49,1.01-0.69c0.54-0.33,1.06-0.64,1.29-1.11c0.25-0.52,0.12-1.23-0.33-1.7
		c-0.43-0.45-1.11-0.69-1.84-0.64c-0.76,0.05-1.49,0.4-2.24,0.77c-0.44,0.22-0.89,0.45-1.33,0.68c-1.67,0.87-3.4,1.77-5.26,2.32
		c-2.74,0.82-5.35,0.69-7.35-0.37c-0.43-0.23-0.83-0.5-1.22-0.76c-0.28-0.19-0.55-0.37-0.84-0.54c-0.89-0.52-1.85-0.88-2.86-1.05
		c-0.3-0.05-0.66-0.09-0.88,0.06c-0.19,0.13-0.27,0.46-0.2,0.77c0.09,0.34,0.32,0.66,0.65,1.03c0.89,1.01,1.92,1.9,3.06,2.62
		L100.17,188.54z"/>
	<path class="st1" d="M122.3,189.56l-0.38-0.93c2.2-0.89,3.9-1.96,5.2-3.27c1.53-1.54,2.46-3.42,2.63-5.3
		c0.14-1.63-0.29-3.41-1.24-5.16c-0.91-1.67-2.22-3.16-3.37-4.39l0.73-0.68c1.2,1.28,2.55,2.82,3.52,4.59
		c1.05,1.92,1.52,3.9,1.36,5.72c-0.18,2.11-1.21,4.21-2.91,5.92C126.43,187.48,124.62,188.62,122.3,189.56z"/>
	<path class="st1" d="M97.82,190.39c-1.37-0.75-2.79-1.53-4.05-2.52c-1.45-1.14-2.49-2.42-3.08-3.8c-0.66-1.54-0.76-3.23-0.78-4.38
		c-0.04-2.47,0.31-4.67,1.05-6.54c0.29-0.74,0.65-1.45,0.99-2.14c0.17-0.33,0.33-0.66,0.49-0.99c0.86-1.81,1.51-3.72,1.92-5.69
		l0.98,0.21c-0.43,2.04-1.11,4.03-2,5.91c-0.16,0.34-0.33,0.67-0.5,1.01c-0.34,0.67-0.68,1.36-0.96,2.06
		c-0.69,1.75-1.02,3.83-0.98,6.17c0.02,1.06,0.11,2.62,0.7,4c0.53,1.22,1.46,2.37,2.78,3.41c1.2,0.94,2.58,1.7,3.91,2.43
		L97.82,190.39z"/>
	<path class="st1" d="M90.72,218.85c-1.85,0-3.7-0.21-5.49-0.64l0.23-0.97c3.46,0.83,7.12,0.82,10.58-0.01l0.24,0.97
		C94.46,218.63,92.59,218.85,90.72,218.85z"/>
	<path class="st1" d="M109.23,219.06c-3.79,0-7.5-0.46-10.88-0.99l0.15-0.99c6.1,0.95,13.24,1.68,19.94-0.16l0.27,0.96
		C115.58,218.75,112.38,219.06,109.23,219.06z"/>
	<path class="st1" d="M137.08,217.83c-4.29,0-8.61-0.2-12.87-0.6l0.09-1c5,0.47,10.09,0.67,15.11,0.58l0.02,1
		C138.64,217.82,137.86,217.83,137.08,217.83z"/>
	<path class="st1" d="M88.65,215.88l-0.15-0.99c2.7-0.42,5.27-1.61,7.74-2.77c1.45-0.68,2.94-1.38,4.47-1.93
		c0.45-0.16,0.93-0.32,1.44-0.32c0.01,0,0.01,0,0.02,0c0.64,0,1.21,0.25,1.71,0.46c1.34,0.57,2.88,1.21,4.35,1.04
		c0.83-0.1,1.61-0.44,2.43-0.81c0.47-0.21,0.95-0.42,1.45-0.59c2.69-0.91,5.87-0.58,9.72,1.02c0.96,0.4,1.91,0.84,2.84,1.27
		c1.93,0.9,3.92,1.83,6,2.33l-0.23,0.97c-2.17-0.52-4.22-1.47-6.19-2.39c-0.91-0.43-1.86-0.87-2.79-1.26
		c-3.62-1.5-6.57-1.82-9.02-0.99c-0.46,0.15-0.9,0.35-1.37,0.56c-0.86,0.38-1.74,0.77-2.72,0.88c-1.75,0.21-3.4-0.49-4.86-1.11
		c-0.44-0.19-0.89-0.38-1.33-0.38c0,0-0.01,0-0.01,0c-0.35,0-0.72,0.12-1.1,0.26c-1.48,0.53-2.96,1.22-4.39,1.89
		C94.13,214.21,91.5,215.44,88.65,215.88z"/>
	<path class="st1" d="M103.78,239.45l-0.62-0.78c2.53-2.01,5.92-2.59,8.59-2.86c3.36-0.35,6.77-0.38,10.14-0.1l-0.08,1
		c-3.3-0.28-6.65-0.24-9.95,0.1C109.16,237.08,106.09,237.61,103.78,239.45z"/>
	<path class="st1" d="M108.09,230.54c-1.24,0-2.51-0.04-3.83-0.1c-3.16-0.17-6.49-0.52-9.54-1.94l0.42-0.91
		c2.89,1.35,6.11,1.69,9.16,1.85c8.49,0.44,15.42-0.57,21.21-3.11l0.4,0.92C120.9,229.45,115.03,230.54,108.09,230.54z"/>
	<polygon class="st1" points="101.71,221.48 100.91,220.88 102.91,217.89 103.74,218.44 102.27,220.65 102.3,220.67 	"/>
	
		<rect x="103.75" y="219.5" transform="matrix(0.0664 -0.9978 0.9978 0.0664 -121.4855 310.1627)" class="st1" width="2.51" height="1"/>
	<path class="st1" d="M115.58,221.49c-0.97-0.8-1.92-1.66-2.84-2.56l0.7-0.71c0.89,0.87,1.83,1.72,2.78,2.5L115.58,221.49z"/>
	
		<rect x="117.58" y="217.29" transform="matrix(0.7856 -0.6188 0.6188 0.7856 -110.2139 120.0317)" class="st1" width="1" height="3.5"/>
	<path class="st1" d="M40.8,165.3L39.84,165c4.37-14.15,8.89-28.78,9.56-43.83c0.19-4.31,0.07-8.73-0.05-12.99
		c-0.2-6.97-0.4-14.17,0.77-21.18c2.64-15.73,12.24-30.67,27.04-42.07c2.54-1.95,5.61-4.13,9.16-5.43
		c7.44-2.73,15.91-1.2,22.71,0.03l-0.18,0.98c-6.68-1.21-15-2.72-22.19-0.08c-3.43,1.26-6.42,3.38-8.9,5.28
		c-14.6,11.25-24.07,25.97-26.66,41.44c-1.16,6.91-0.96,14.06-0.76,20.98c0.12,4.29,0.25,8.72,0.05,13.07
		C49.72,136.4,45.19,151.09,40.8,165.3z"/>
	<path class="st1" d="M37.31,136.66c-3.41-11.16-3.62-23.14-3.37-33.38c0.19-8.05,0.69-16.66,2.96-25.06
		c1.96-7.24,5.02-13.41,9.11-18.33c6.6-7.96,15.98-12.85,24.26-16.81c7.57-3.62,14.03-6.3,20.98-7.59
		c5.75-1.06,14.23-1.5,22.04,2.46l-0.45,0.89c-7.55-3.83-15.81-3.4-21.4-2.37c-6.84,1.27-13.24,3.92-20.73,7.51
		c-8.18,3.92-17.45,8.75-23.92,16.55c-3.99,4.81-6.99,10.85-8.91,17.95c-2.24,8.3-2.73,16.83-2.92,24.82
		c-0.24,10.16-0.04,22.04,3.33,33.06L37.31,136.66z"/>
	<path class="st1" d="M121.57,40.14l-0.94-0.35c0.87-2.35,1.77-4.79,1.7-7.3c-0.06-1.94-0.72-3.98-1.91-5.91
		c-2.45-3.95-6.85-6.74-11.46-7.28l0.12-0.99c4.92,0.57,9.59,3.54,12.2,7.74c1.29,2.08,2,4.29,2.06,6.41
		C123.4,35.17,122.43,37.81,121.57,40.14z"/>
	<path class="st1" d="M132.23,37.93l-0.97-0.23c1.2-5.02,0.85-10.45-0.99-15.28c-0.19-0.51-0.43-1.1-0.82-1.54
		c-0.44-0.5-1.06-0.82-1.67-1.09c-1.33-0.6-2.73-1.04-4.16-1.31l0.19-0.98c1.51,0.29,2.99,0.75,4.38,1.38
		c0.68,0.31,1.45,0.7,2.02,1.35c0.49,0.56,0.77,1.25,1,1.84C133.11,27.07,133.47,32.71,132.23,37.93z"/>
	<path class="st1" d="M138.42,37.45l-0.83-0.56c0.68-1,1.48-1.94,2.26-2.84c1.52-1.77,2.96-3.44,3.55-5.55
		c0.36-1.29,0.37-2.67,0.37-4c0-0.71,0.01-1.45-0.25-2.08c-0.23-0.57-0.68-1.05-1.15-1.55c-0.41-0.44-0.83-0.89-1.15-1.45l0.87-0.49
		c0.25,0.45,0.62,0.84,1.01,1.26c0.51,0.55,1.04,1.11,1.34,1.85c0.33,0.82,0.33,1.69,0.32,2.47c-0.01,1.4-0.02,2.85-0.41,4.27
		c-0.65,2.32-2.23,4.16-3.75,5.94C139.85,35.58,139.07,36.5,138.42,37.45z"/>
	<path class="st1" d="M142.34,39.02l-0.82-0.58c1.71-2.43,3.96-4.49,6.53-5.98c1.16-0.67,2.39-1.23,3.58-1.77
		c1.83-0.83,3.72-1.69,5.76-2.07l0.19,0.98c-1.92,0.37-3.76,1.2-5.54,2c-1.17,0.53-2.37,1.08-3.49,1.72
		C146.12,34.75,143.97,36.72,142.34,39.02z"/>
	<path class="st1" d="M170.39,47.33c-5.24,0-10.44-0.65-15.49-2.26l0.3-0.95c13.15,4.19,27.38,1.71,40.8-1.6l0.24,0.97
		C187.8,45.57,179.04,47.33,170.39,47.33z"/>
	<path class="st1" d="M207.9,60.48l-11-1.69c-4.27-0.65-8.69-1.33-12.99-2.37c-2.04-0.49-4.08-1.07-6.07-1.63
		c-4.46-1.26-9.06-2.57-13.72-2.9l0.07-1c4.76,0.33,9.42,1.65,13.92,2.93c1.97,0.56,4.01,1.14,6.03,1.62
		c4.26,1.03,8.65,1.7,12.9,2.35l11,1.69L207.9,60.48z"/>
	<path class="st1" d="M200.41,98.83c-1.84-3.32-3.42-6.86-4.94-10.29c-2.82-6.33-5.73-12.87-10.36-18.07
		c-4.36-4.89-10.03-8.4-15.51-11.79l0.53-0.85c5.55,3.43,11.28,6.98,15.73,11.98c4.74,5.32,7.68,11.93,10.53,18.33
		c1.52,3.41,3.08,6.93,4.9,10.21L200.41,98.83z"/>
	<path class="st1" d="M185.82,207.9l-0.94-0.35l3.32-8.85c0.91-2.43,1.85-4.94,2.44-7.5c1.2-5.19,0.99-10.61,0.79-15.86l-0.51-13.54
		c-0.11-2.86-0.22-5.81-0.59-8.67c-0.15-1.14-0.34-2.29-0.53-3.43c-0.5-2.96-1.01-6.03-0.76-9.09c0.28-3.46,1.57-6.9,3.64-9.69
		l0.8,0.6c-1.96,2.64-3.19,5.89-3.45,9.17c-0.24,2.94,0.27,5.94,0.75,8.85c0.19,1.16,0.39,2.31,0.54,3.47
		c0.38,2.91,0.49,5.88,0.6,8.76l0.51,13.54c0.2,5.31,0.41,10.8-0.82,16.12c-0.61,2.63-1.56,5.17-2.48,7.63L185.82,207.9z"/>
	<path class="st1" d="M113.61,262.21c-3.2,0-6.44-0.25-9.56-1.03c-11.41-2.84-20.03-12.26-26.95-19.83l-20.3-22.19l0.74-0.68
		l20.3,22.19c6.83,7.47,15.33,16.77,26.45,19.54c5.88,1.46,12.01,1.02,17.94,0.58c3.43-0.25,6.97-0.51,10.32-1.48
		c3.21-0.93,6.22-2.51,8.73-3.94c16.09-9.13,29.78-22.25,39.58-37.93c1.36-2.17,2.73-4.54,3.56-7.08c0.19-0.59,0.36-1.19,0.53-1.8
		c0.62-2.23,1.27-4.54,3.05-6.1l0.66,0.75c-1.56,1.36-2.14,3.43-2.75,5.62c-0.17,0.62-0.35,1.24-0.54,1.84
		c-0.87,2.65-2.28,5.07-3.67,7.3c-9.89,15.83-23.71,29.06-39.94,38.27c-2.57,1.46-5.64,3.07-8.95,4.03c-3.44,1-7.04,1.26-10.52,1.52
		C119.54,261.99,116.6,262.21,113.61,262.21z"/>
	<path class="st1" d="M78.49,262.56c-7.37-9.42-15.72-20.09-18.6-32.67c-0.6-2.64-0.96-5.35-1.31-7.98
		c-0.32-2.41-0.65-4.9-1.17-7.31c-0.33-1.55-0.76-3.12-1.17-4.63c-0.4-1.5-0.82-3.05-1.16-4.59c-0.44-2.03-0.75-4.11-1.05-6.12
		c-0.25-1.64-0.5-3.33-0.82-4.98c-1.09-5.58-3.03-11.06-4.91-16.36c-1.9-5.34-3.86-10.86-4.96-16.52l0.98-0.19
		c1.09,5.59,3.03,11.07,4.92,16.38c1.89,5.33,3.85,10.85,4.95,16.5c0.33,1.67,0.58,3.37,0.83,5.02c0.3,1.99,0.61,4.06,1.04,6.05
		c0.33,1.52,0.75,3.06,1.15,4.54c0.41,1.53,0.84,3.11,1.18,4.68c0.53,2.45,0.86,4.96,1.18,7.39c0.35,2.6,0.7,5.3,1.3,7.89
		c2.84,12.37,11.11,22.95,18.42,32.28L78.49,262.56z"/>
	<path class="st1" d="M71.21,141.44c-1.9-0.97-3.49-2.54-4.47-4.44l-0.07-0.13l0.35-0.11l0.08,0.24l-0.07,0.02
		c0.96,1.79,2.48,3.28,4.3,4.21L71.21,141.44z"/>
	<path class="st1" d="M151.61,138.38l-0.12-0.22c2.15-1.2,4.58-2.56,6.29-4.56l0.19,0.16C156.24,135.8,153.78,137.17,151.61,138.38z
		"/>
	<path class="st1" d="M6.16,176.12l-0.83-0.55c11.62-17.46,18.49-37.74,19.88-58.67c0.23-3.54,0.32-7.16,0.39-10.65
		c0.16-7.1,0.32-14.45,1.78-21.54c2.17-10.56,7.1-20.24,11.87-29.61c2.77-5.45,5.64-11.09,9.15-16.28
		C65.46,13.56,98.57-0.37,130.78,4.15c3.75,0.53,8.58,1.43,12.76,3.75c7.8,4.33,12.11,12.38,16.55,21.68l-0.9,0.43
		c-4.37-9.14-8.59-17.05-16.14-21.24c-4.04-2.24-8.76-3.12-12.42-3.63c-31.85-4.47-64.57,9.29-81.42,34.24
		c-3.47,5.14-6.33,10.75-9.09,16.17c-4.74,9.31-9.63,18.93-11.78,29.36c-1.44,7-1.6,14.3-1.76,21.36c-0.08,3.51-0.16,7.14-0.4,10.7
		C24.81,138.06,17.87,158.52,6.16,176.12z"/>
	<path class="st1" d="M33.7,325.88l-0.87-0.5c3.16-5.51,3.03-12.23,2.41-18.68c-0.69-7.25-1.76-13.03-3.36-18.19
		c-2.42-7.82-6.42-15.16-10.27-22.27c-2.43-4.47-4.94-9.1-7.05-13.81c-7.04-15.71-9.94-33.08-8.4-50.23
		c0.96-10.65,3.62-21.17,6.2-31.34l0.97,0.25c-2.57,10.13-5.23,20.61-6.18,31.18c-1.52,16.98,1.35,34.17,8.32,49.73
		c2.1,4.68,4.6,9.29,7.02,13.74c3.88,7.15,7.9,14.54,10.35,22.45c1.62,5.23,2.7,11.07,3.4,18.4C36.87,313.22,37,320.13,33.7,325.88z
		"/>
	<path class="st1" d="M65.55,323.59c-0.07,0-0.15-0.01-0.23-0.03c-0.41-0.09-0.85-0.46-0.9-0.97c-0.07-0.73,0.48-1.29,0.74-1.55
		c1.2-1.22,2.54-2.31,3.83-3.37c1.3-1.07,2.65-2.17,3.84-3.38c3.18-3.25,5.58-7.61,7.33-13.32c4.08-13.29,3.3-29.26-2.3-47.45
		c-2.62-8.5-6.02-16.89-9.31-25c-2.69-6.63-5.46-13.49-7.81-20.38c-0.6-1.76-1.17-3.53-1.75-5.31c-2.9-8.92-5.9-18.15-11.8-25.44
		l0.78-0.63c6.02,7.43,9.05,16.75,11.98,25.76c0.58,1.77,1.15,3.54,1.75,5.29c2.33,6.86,5.11,13.71,7.79,20.32
		c3.3,8.13,6.71,16.55,9.34,25.08c5.66,18.39,6.44,34.55,2.3,48.04c-1.8,5.87-4.28,10.36-7.57,13.73c-1.23,1.25-2.59,2.37-3.92,3.46
		c-1.27,1.04-2.59,2.12-3.75,3.29c-0.24,0.24-0.48,0.52-0.46,0.76c0.01,0.03,0.09,0.09,0.13,0.09c-0.04,0-0.09,0.03-0.11,0.07
		l0.86,0.51C66.14,323.44,65.86,323.59,65.55,323.59z"/>
	<path class="st1" d="M195.84,147.85c-0.78-1.98-0.83-4.12-0.88-6.2l-0.02-0.85c-0.33-10.3-3.37-20.38-8.81-29.13l0.85-0.53
		c5.53,8.91,8.63,19.15,8.96,29.63l0.02,0.86c0.05,1.99,0.1,4.04,0.81,5.85L195.84,147.85z"/>
	<path class="st1" d="M202.58,140.03c-0.36-6.62-0.73-13.47-1.36-20.21c-0.57-6.15-1.42-13.24-4.32-19.56
		c-4.21-9.17-12.4-16.04-19.63-22.1l0.64-0.77c7.31,6.13,15.59,13.08,19.89,22.45c2.96,6.46,3.83,13.65,4.41,19.88
		c0.63,6.76,1,13.62,1.36,20.25L202.58,140.03z"/>
	<path class="st1" d="M218.02,113.78l-0.95-0.32c2.31-6.92,4.93-14.76,4.4-22.53c-0.48-6.96-3.44-13.42-5.97-18.27
		c-4.72-9.06-10.63-17.46-17.56-24.97l0.73-0.68c6.99,7.57,12.95,16.04,17.71,25.18c2.57,4.93,5.59,11.51,6.08,18.66
		C223.01,98.83,220.36,106.77,218.02,113.78z"/>
	<path class="st1" d="M224.57,229.57c-2.41-4.02-5.83-7.52-9.13-10.92c-4.78-4.91-9.72-9.99-11.64-16.66
		c-1.35-4.68-1.06-9.54-0.58-14.95c1.17-13.2,2.49-23.23,4.26-32.52c0.18-0.93,0.36-1.86,0.55-2.8c0.99-5,2-10.16,2.02-15.3
		c0-1.12-0.04-2.58-0.36-3.98c-1.13-4.86-5.31-8.31-9.85-11.7l0.6-0.8c4.7,3.51,9.01,7.08,10.22,12.27c0.35,1.5,0.39,3.04,0.39,4.21
		c-0.01,5.23-1.04,10.45-2.04,15.49c-0.18,0.93-0.37,1.86-0.54,2.79c-1.76,9.26-3.07,19.25-4.24,32.42
		c-0.47,5.31-0.76,10.07,0.55,14.59c1.85,6.43,6.49,11.19,11.4,16.24c3.34,3.43,6.79,6.98,9.27,11.1L224.57,229.57z"/>
	<path class="st1" d="M226.03,252.9c-7.47-3.98-14.59-8.69-21.18-14c-3.17-2.56-6.42-5.43-8.73-9.04
		c-4.71-7.37-5.36-17.57-1.93-30.32l0.96,0.26c-3.36,12.46-2.75,22.39,1.8,29.52c2.24,3.5,5.42,6.3,8.52,8.81
		c6.53,5.28,13.6,9.95,21.02,13.9L226.03,252.9z"/>
	<path class="st1" d="M106.66,314.92c-10.36-14.13-21.16-28.23-32.1-41.89l0.78-0.63c10.95,13.68,21.76,27.78,32.13,41.93
		L106.66,314.92z"/>
	<path class="st1" d="M97.3,320.42l-0.59-0.81c3.99-2.93,8.27-5.61,12.41-8.19c7.29-4.56,14.84-9.28,20.93-15.48
		c4.41-4.49,8.08-9.79,11.63-14.91c0.76-1.09,1.51-2.18,2.27-3.26c7.77-11.04,16.46-21.57,25.83-31.3l0.72,0.69
		c-9.33,9.69-17.99,20.18-25.74,31.18c-0.76,1.08-1.52,2.17-2.27,3.26c-3.57,5.15-7.27,10.48-11.74,15.04
		c-6.17,6.29-13.77,11.03-21.11,15.63C105.53,314.84,101.27,317.51,97.3,320.42z"/>
	<path class="st1" d="M271.06,269.96c-12.83-3.26-24.79-12.93-32.82-26.52c-3.98-6.74-6.92-14.12-9.76-21.25
		c-6.43-16.15-13.09-32.86-14.34-50.6c-0.47-6.65-0.16-13.41,0.15-19.95c0.2-4.42,0.42-8.98,0.38-13.47
		c-0.13-17.71-4.11-35.57-11.53-51.65l0.91-0.42c7.48,16.21,11.5,34.21,11.62,52.07c0.03,4.51-0.18,9.09-0.38,13.52
		c-0.3,6.51-0.61,13.24-0.15,19.83c1.24,17.59,7.86,34.22,14.27,50.3c2.83,7.1,5.75,14.44,9.7,21.11
		c7.9,13.36,19.63,22.86,32.21,26.06L271.06,269.96z"/>
	<path class="st1" d="M217.55,74.72c-3.45-10.18-7.37-21.71-15.41-29.94c-3.58-3.66-8.2-6.91-14.56-10.24
		c-3.76-1.97-8.77-4.33-14.06-5.11c-6.15-0.9-12.38,0.29-18.4,1.44l-0.19-0.98c6.1-1.17,12.41-2.37,18.73-1.45
		c5.45,0.8,10.55,3.2,14.38,5.21c6.45,3.38,11.16,6.69,14.81,10.43c8.2,8.39,12.16,20.04,15.64,30.32L217.55,74.72z"/>
	<path class="st1" d="M107.14,190.13c-2.21,0-3.82-0.59-4.8-1.77c-0.29-0.35-0.5-0.72-0.62-1.1c-0.17-0.56-0.15-1.12-0.13-1.66
		c0.01-0.34,0.03-0.66-0.01-0.96l0.99-0.12c0.04,0.38,0.03,0.76,0.01,1.12c-0.02,0.48-0.04,0.93,0.08,1.33
		c0.08,0.25,0.22,0.51,0.43,0.75c0.81,0.96,2.24,1.45,4.21,1.41c1.36-0.02,2.26-0.29,2.83-0.84c0.27-0.26,0.5-0.62,0.7-1.1
		c0.25-0.59,0.39-1.2,0.44-1.83l1,0.07c-0.05,0.74-0.23,1.46-0.51,2.14c-0.25,0.61-0.56,1.07-0.93,1.43
		c-1.01,0.98-2.49,1.11-3.51,1.13C107.27,190.13,107.2,190.13,107.14,190.13z"/>
	<path class="st1" d="M107.23,193.02c-0.24,0-0.5-0.01-0.75-0.02c-1.57-0.08-5.36-0.56-6.7-3.27c-0.42-0.84-0.63-1.74-0.84-2.61
		c-0.12-0.49-0.25-1.05-0.18-1.63c0.14-1.17,1.04-2.02,1.69-2.64l0.69,0.72c-0.7,0.67-1.29,1.28-1.39,2.03
		c-0.05,0.4,0.06,0.85,0.16,1.28c0.2,0.81,0.4,1.66,0.76,2.4c1.11,2.24,4.46,2.64,5.85,2.71c2.43,0.12,4.06-0.38,5.59-1.74
		c0.72-0.64,1.24-1.27,1.59-1.95c0.58-1.11,0.72-2.45,0.39-3.66l0.96-0.26c0.4,1.45,0.23,3.05-0.47,4.38
		c-0.41,0.78-1,1.51-1.81,2.23C111.2,192.41,109.55,193.02,107.23,193.02z"/>
	<path class="st1" d="M99.99,158.93l-0.92-0.39c1.51-3.55,1.97-7.42,2.39-11.75c0.37-3.84,0.62-7.29-0.13-10.59
		c-0.99-4.4-3.75-8.35-6.19-11.83l0.82-0.57c2.49,3.56,5.31,7.59,6.34,12.18c0.78,3.45,0.53,6.98,0.15,10.91
		C102.03,151.3,101.55,155.25,99.99,158.93z"/>
	<path class="st1" d="M122.45,147.92c-3.54-3.1-4.87-8.53-3.18-12.92c0.37-0.95,0.85-1.83,1.31-2.68l4.17-7.64l0.88,0.48l-4.17,7.64
		c-0.45,0.82-0.91,1.67-1.26,2.56c-1.55,4.01-0.33,8.98,2.9,11.81L122.45,147.92z"/>
	<path class="st1" d="M152.92,167.67c-8.43,0-17.38-4.52-24.67-12.66c-8.14-9.09-12.04-20.19-9.71-27.63
		c2.56-8.16,13.66-14.82,28.27-16.97c14.72-2.16,27.47,1.2,32.48,8.58c4.29,6.31,4.29,17.13,0,27.57
		c-4.57,11.13-12.79,18.86-21.99,20.68C155.86,167.53,154.4,167.67,152.92,167.67z M155.46,110.77c-2.72,0-5.57,0.21-8.5,0.64
		c-11.66,1.72-24.67,7.41-27.46,16.28l0,0c-2.24,7.11,1.58,17.83,9.5,26.66c8.33,9.3,18.84,13.75,28.11,11.92
		c8.87-1.75,16.82-9.26,21.26-20.07c4.16-10.14,4.2-20.59,0.1-26.63C174.65,113.94,166.04,110.77,155.46,110.77z"/>
	<path class="st1" d="M70.78,171.84c-0.69,0-1.37-0.03-2.06-0.09c-9.47-0.87-18.56-7.8-24.33-18.54
		c-5.41-10.08-6.55-20.98-2.89-27.79c4.28-7.96,16.78-12.69,31.85-12.05c14.95,0.64,26.83,6.19,30.27,14.14l0,0
		c3.14,7.25,0.37,18.85-6.89,28.86C89.62,166.18,80.06,171.84,70.78,171.84z M70.63,114.31c-13.47,0-24.4,4.42-28.24,11.58
		c-3.5,6.52-2.37,17.06,2.89,26.84c5.61,10.44,14.41,17.18,23.54,18.02c9.54,0.89,19.67-4.72,27.1-14.96
		c7.06-9.74,9.78-20.94,6.78-27.88c-3.74-8.65-17.46-13.03-29.39-13.54C72.41,114.33,71.51,114.31,70.63,114.31z"/>
	<path class="st1" d="M104.76,136.38l-1-0.09c0-0.06,0.58-5.5,7.11-6.24c5.46-0.62,8.27,4.35,8.29,4.4l-0.87,0.49
		c-0.1-0.18-2.54-4.43-7.31-3.89C105.26,131.69,104.77,136.34,104.76,136.38z"/>
	
		<rect x="177.8" y="114" transform="matrix(0.7929 -0.6093 0.6093 0.7929 -31.2507 137.0473)" class="st1" width="16.4" height="1"/>
</g>
<g id="RØD">
	<path class="st2" d="M139.7,138.63l-0.46-0.89c5.74-3,12.25-6.38,19.29-6.19c3.31,0.09,6.83,1.02,10.46,2.74l-0.43,0.9
		c-3.5-1.66-6.89-2.55-10.06-2.64C151.73,132.35,145.33,135.69,139.7,138.63z"/>
	<path class="st2" d="M98.32,139.45c-3.58-2.43-7.47-3.93-11.25-4.33c-4.22-0.45-8.33,0.47-11.56,2.58
		c-0.38,0.25-0.56,0.59-0.54,0.67l-0.7,0.72c-0.22-0.23-0.33-0.52-0.3-0.84c0.06-0.59,0.57-1.11,0.99-1.38
		c3.43-2.23,7.77-3.2,12.21-2.73c3.94,0.42,7.99,1.97,11.71,4.5L98.32,139.45z"/>
	<path class="st2" d="M87.34,144.85c-0.43,0-0.86-0.03-1.25-0.07c-0.93-0.1-2.12-0.3-3.12-0.95c-1.3-0.86-2.12-2.5-2.07-4.16
		c0.07-2.33,1.83-4.39,4.02-4.68l0.13,0.99c-1.68,0.23-3.1,1.9-3.15,3.72c-0.04,1.33,0.6,2.62,1.62,3.3
		c0.81,0.54,1.85,0.71,2.67,0.79c1.63,0.17,3.81,0.08,4.96-1.37c0.57-0.72,0.84-1.75,0.75-2.91c-0.08-1.1-0.44-2.18-0.79-3.22
		l0.95-0.32c0.37,1.1,0.75,2.24,0.84,3.46c0.1,1.41-0.24,2.69-0.97,3.61C90.81,144.47,88.98,144.85,87.34,144.85z"/>
	<path class="st2" d="M69.56,138.72l-0.91-0.42c0.92-1.96,2.36-3.63,4.18-4.82c2.5-1.64,5.45-2.24,8.27-2.63
		c4.92-0.69,8.62-0.65,12,0.14c4.32,1.01,7.95,3.43,9.97,6.62l-0.85,0.53c-1.88-2.97-5.28-5.22-9.35-6.18
		c-3.25-0.76-6.83-0.8-11.63-0.13c-2.7,0.38-5.52,0.95-7.86,2.48C71.75,135.39,70.39,136.95,69.56,138.72z"/>
	<path class="st2" d="M137.43,136.54l-0.57-0.82c4.01-2.82,8.84-5.81,14.21-6.62c2.78-0.42,5.64-0.24,8.32,0.01
		c1.26,0.12,2.6,0.27,3.93,0.54c2.74,0.56,5.43,1.67,7.77,3.2l-0.55,0.84c-2.24-1.47-4.8-2.53-7.42-3.06
		c-1.28-0.26-2.59-0.4-3.82-0.52c-2.61-0.25-5.4-0.42-8.08-0.02C146.06,130.87,141.35,133.78,137.43,136.54z"/>
	<path class="st2" d="M153.76,141.06c-0.57,0-1.14-0.02-1.7-0.06c-1.11-0.08-2.34-0.28-3.16-1.18c-0.72-0.8-0.86-1.88-0.9-2.73
		c-0.03-0.6-0.02-1.3,0.23-1.97c0.29-0.77,0.88-1.34,1.58-1.51l0.24,0.97c-0.37,0.09-0.71,0.43-0.88,0.89
		c-0.19,0.49-0.19,1.07-0.16,1.56c0.03,0.69,0.14,1.55,0.65,2.11c0.58,0.64,1.58,0.79,2.49,0.85c2.02,0.14,4.06,0.02,6.06-0.37
		c0.3-0.06,0.58-0.12,0.8-0.25c0.31-0.18,0.55-0.53,0.8-0.9c0.32-0.5,0.65-1.03,0.82-1.6c0.34-1.16-0.06-2.53-0.98-3.32l0.65-0.76
		c1.23,1.06,1.74,2.81,1.29,4.36c-0.2,0.7-0.58,1.3-0.94,1.86c-0.3,0.46-0.63,0.93-1.13,1.22c-0.36,0.21-0.75,0.29-1.12,0.37
		C156.86,140.91,155.31,141.06,153.76,141.06z"/>
	<path class="st2" d="M133.58,122.77l-0.98-0.2c0.29-1.45,0.63-2.98,1.26-4.39c0.81-1.84,2.1-3.44,3.71-4.64l0.6,0.8
		c-1.48,1.1-2.65,2.57-3.4,4.25C134.19,119.9,133.88,121.32,133.58,122.77z"/>
	<path class="st2" d="M132.59,123.48l-0.34-0.94c6.76-2.46,13.69-4.77,20.59-6.87c2.84-0.86,5.87-1.75,8.97-2.31
		c6.71-1.21,13.62-0.86,19.49-0.35l-0.09,1c-5.8-0.51-12.63-0.86-19.22,0.33c-3.05,0.55-6.04,1.43-8.86,2.28
		C146.24,118.72,139.33,121.02,132.59,123.48z"/>
	<path class="st2" d="M136.8,114.06l-0.22-0.98c11.19-2.51,23.87-5.35,36.08-3.44c3.42,0.54,6.8,1.44,10.05,2.69l-0.36,0.93
		c-3.18-1.22-6.49-2.11-9.85-2.64C160.49,108.76,147.9,111.58,136.8,114.06z"/>
	<path class="st2" d="M102.92,124.63c-0.79-1.63-0.89-3.43-0.98-5.17c-0.08-1.51-0.16-2.94-0.65-4.26l0.94-0.34
		c0.54,1.47,0.62,3.04,0.71,4.55c0.09,1.72,0.18,3.35,0.88,4.79L102.92,124.63z"/>
	<path class="st2" d="M102.03,124.45c-10.3-3.25-20.99-5.22-31.77-5.84c-1.53-0.09-3.02-0.15-4.49,0.09
		c-2.77,0.45-5.25,1.94-7.65,3.37l-0.1-0.17l-0.15,0.3l-1.06-0.52l0.79-0.47c2.36-1.41,5.04-3.01,8-3.5
		c1.57-0.26,3.19-0.19,4.71-0.1c10.86,0.63,21.64,2.61,32.01,5.88L102.03,124.45z"/>
	<path class="st2" d="M57.04,121.22l-0.76-0.65l2.52-2.97c1.65-1.94,3.7-4.36,6.48-5.37c1.33-0.48,2.74-0.61,3.96-0.7
		c11.01-0.77,21.95,1.39,32.53,3.48l-0.19,0.98c-10.52-2.08-21.39-4.23-32.26-3.47c-1.15,0.08-2.49,0.2-3.69,0.64
		c-2.53,0.92-4.4,3.12-6.05,5.07L57.04,121.22z"/>
	<path class="st2" d="M109.17,190.54c-1.22-0.78-2.32-1.72-3.27-2.8c-0.36-0.41-0.72-0.87-0.86-1.44c-0.16-0.61-0.03-1.41,0.6-1.85
		c0.51-0.35,1.13-0.3,1.61-0.22c1.13,0.2,2.21,0.59,3.2,1.18c0.3,0.18,0.6,0.38,0.89,0.57c0.38,0.26,0.74,0.5,1.13,0.7
		c1.76,0.94,4.11,1.04,6.6,0.3c1.76-0.53,3.45-1.4,5.08-2.25c0.45-0.23,0.89-0.46,1.34-0.69c0.84-0.42,1.68-0.81,2.62-0.88
		c1.02-0.07,2,0.28,2.64,0.95c0.74,0.77,0.95,1.94,0.51,2.83c-0.36,0.74-1.03,1.14-1.67,1.53c-0.32,0.19-0.63,0.38-0.88,0.59
		l-0.65-0.76c0.32-0.27,0.67-0.49,1.01-0.69c0.54-0.33,1.06-0.64,1.29-1.11c0.25-0.52,0.12-1.23-0.33-1.7
		c-0.43-0.45-1.12-0.69-1.84-0.64c-0.76,0.05-1.49,0.4-2.24,0.77c-0.44,0.22-0.89,0.45-1.33,0.68c-1.67,0.87-3.4,1.77-5.26,2.32
		c-2.74,0.82-5.35,0.69-7.35-0.37c-0.43-0.23-0.83-0.5-1.22-0.76c-0.28-0.19-0.55-0.37-0.84-0.54c-0.89-0.52-1.85-0.88-2.86-1.05
		c-0.3-0.05-0.66-0.09-0.88,0.06c-0.19,0.13-0.28,0.47-0.2,0.77c0.09,0.34,0.32,0.66,0.65,1.03c0.89,1.01,1.92,1.89,3.06,2.62
		L109.17,190.54z"/>
	<path class="st2" d="M131.3,191.56l-0.38-0.93c2.2-0.89,3.9-1.96,5.2-3.27c1.53-1.54,2.46-3.42,2.63-5.3
		c0.14-1.63-0.29-3.41-1.24-5.16c-0.91-1.67-2.22-3.16-3.37-4.39l0.73-0.68c1.2,1.28,2.55,2.82,3.52,4.59
		c1.05,1.92,1.52,3.9,1.36,5.72c-0.18,2.11-1.21,4.21-2.91,5.92C135.43,189.48,133.62,190.62,131.3,191.56z"/>
	<path class="st2" d="M106.82,192.39c-1.37-0.75-2.79-1.53-4.05-2.52c-1.45-1.14-2.49-2.42-3.08-3.8c-0.66-1.54-0.76-3.24-0.78-4.38
		c-0.04-2.47,0.31-4.67,1.05-6.54c0.29-0.74,0.65-1.46,0.99-2.15c0.17-0.33,0.33-0.66,0.49-0.99c0.86-1.81,1.5-3.72,1.92-5.69
		l0.98,0.21c-0.43,2.04-1.11,4.03-2,5.91c-0.16,0.34-0.33,0.67-0.5,1.01c-0.34,0.67-0.68,1.36-0.96,2.06
		c-0.69,1.75-1.02,3.83-0.98,6.16c0.02,1.06,0.1,2.62,0.7,4c0.53,1.22,1.46,2.37,2.78,3.41c1.2,0.94,2.58,1.7,3.91,2.43
		L106.82,192.39z"/>
	<path class="st2" d="M99.72,220.85c-1.85,0-3.7-0.21-5.49-0.64l0.23-0.97c3.46,0.83,7.12,0.82,10.58-0.01l0.23,0.97
		C103.46,220.63,101.59,220.85,99.72,220.85z"/>
	<path class="st2" d="M118.23,221.06c-3.79,0-7.5-0.46-10.88-0.99l0.15-0.99c6.1,0.95,13.24,1.68,19.94-0.16l0.27,0.96
		C124.58,220.75,121.38,221.06,118.23,221.06z"/>
	<path class="st2" d="M146.08,219.83c-4.29,0-8.61-0.2-12.87-0.6l0.09-1c5,0.47,10.09,0.67,15.11,0.58l0.02,1
		C147.64,219.82,146.86,219.83,146.08,219.83z"/>
	<path class="st2" d="M97.65,217.88l-0.15-0.99c2.7-0.42,5.27-1.61,7.74-2.77c1.45-0.68,2.94-1.38,4.47-1.93
		c0.45-0.16,0.93-0.32,1.44-0.32c0.01,0,0.01,0,0.02,0c0.64,0,1.21,0.25,1.71,0.46c1.35,0.57,2.88,1.21,4.35,1.04
		c0.83-0.1,1.61-0.44,2.43-0.81c0.47-0.21,0.95-0.42,1.45-0.59c2.69-0.91,5.87-0.58,9.72,1.02c0.96,0.4,1.91,0.84,2.84,1.27
		c1.93,0.9,3.92,1.83,6,2.33l-0.23,0.97c-2.17-0.52-4.22-1.47-6.19-2.39c-0.91-0.43-1.86-0.87-2.79-1.26
		c-3.62-1.5-6.57-1.82-9.02-0.99c-0.46,0.15-0.9,0.35-1.37,0.56c-0.86,0.38-1.74,0.77-2.72,0.88c-1.75,0.22-3.4-0.49-4.86-1.11
		c-0.44-0.19-0.89-0.38-1.33-0.38c-0.37-0.01-0.73,0.12-1.11,0.26c-1.48,0.53-2.96,1.22-4.39,1.89
		C103.13,216.21,100.5,217.44,97.65,217.88z"/>
	<path class="st2" d="M112.78,241.45l-0.62-0.78c2.53-2.01,5.92-2.59,8.59-2.86c3.37-0.35,6.77-0.38,10.14-0.1l-0.08,1
		c-3.3-0.28-6.65-0.24-9.95,0.1C118.16,239.08,115.09,239.61,112.78,241.45z"/>
	<path class="st2" d="M117.09,232.54c-1.24,0-2.51-0.04-3.83-0.1c-3.15-0.17-6.49-0.52-9.54-1.94l0.42-0.91
		c2.89,1.35,6.11,1.69,9.16,1.85c8.49,0.44,15.42-0.57,21.21-3.11l0.4,0.92C129.9,231.45,124.03,232.54,117.09,232.54z"/>
	<polygon class="st2" points="110.71,223.48 109.91,222.88 111.91,219.89 112.74,220.44 111.27,222.65 111.3,222.67 	"/>
	
		<rect x="112.75" y="221.5" transform="matrix(0.0664 -0.9978 0.9978 0.0664 -115.0786 321.01)" class="st2" width="2.51" height="1"/>
	<path class="st2" d="M124.58,223.49c-0.97-0.8-1.92-1.66-2.84-2.56l0.7-0.71c0.89,0.87,1.83,1.72,2.78,2.5L124.58,223.49z"/>
	
		<rect x="126.58" y="219.29" transform="matrix(0.7856 -0.6188 0.6188 0.7856 -109.5217 126.0293)" class="st2" width="1" height="3.5"/>
	<path class="st2" d="M49.8,167.3L48.84,167c4.37-14.15,8.89-28.78,9.56-43.83c0.19-4.31,0.07-8.73-0.05-12.99
		c-0.2-6.97-0.4-14.17,0.77-21.18c2.64-15.73,12.24-30.67,27.04-42.07c2.54-1.95,5.61-4.13,9.16-5.43
		c7.44-2.73,15.91-1.2,22.71,0.03l-0.18,0.98c-6.69-1.21-15.01-2.72-22.19-0.08c-3.43,1.26-6.42,3.38-8.9,5.28
		c-14.6,11.25-24.07,25.97-26.66,41.44c-1.16,6.91-0.96,14.06-0.76,20.98c0.12,4.29,0.25,8.72,0.05,13.07
		C58.72,138.4,54.19,153.09,49.8,167.3z"/>
	<path class="st2" d="M46.31,138.66c-3.41-11.16-3.62-23.14-3.37-33.38c0.19-8.05,0.69-16.66,2.96-25.06
		c1.96-7.24,5.02-13.41,9.11-18.33c6.6-7.96,15.98-12.85,24.26-16.81c7.57-3.62,14.03-6.3,20.98-7.59
		c5.75-1.06,14.23-1.5,22.04,2.46l-0.45,0.89c-7.55-3.83-15.81-3.4-21.4-2.37c-6.84,1.27-13.24,3.92-20.73,7.51
		c-8.18,3.92-17.45,8.75-23.92,16.55c-3.99,4.81-6.99,10.85-8.91,17.95c-2.24,8.3-2.73,16.83-2.92,24.82
		c-0.24,10.16-0.04,22.04,3.33,33.06L46.31,138.66z"/>
	<path class="st2" d="M130.57,42.14l-0.94-0.35c0.87-2.35,1.77-4.79,1.7-7.3c-0.06-1.94-0.72-3.98-1.91-5.91
		c-2.45-3.95-6.85-6.74-11.46-7.28l0.12-0.99c4.92,0.57,9.59,3.54,12.2,7.74c1.29,2.08,2,4.29,2.06,6.41
		C132.4,37.17,131.43,39.81,130.57,42.14z"/>
	<path class="st2" d="M141.23,39.93l-0.97-0.23c1.2-5.02,0.85-10.45-0.99-15.28c-0.19-0.51-0.43-1.1-0.82-1.54
		c-0.44-0.5-1.06-0.82-1.67-1.09c-1.33-0.6-2.73-1.04-4.16-1.31l0.19-0.98c1.51,0.29,2.99,0.75,4.38,1.38
		c0.68,0.31,1.45,0.7,2.02,1.35c0.49,0.56,0.77,1.25,1,1.84C142.11,29.07,142.47,34.71,141.23,39.93z"/>
	<path class="st2" d="M147.42,39.45l-0.83-0.56c0.68-1,1.48-1.94,2.26-2.84c1.52-1.77,2.96-3.44,3.55-5.55
		c0.36-1.29,0.37-2.67,0.37-4c0-0.71,0.01-1.45-0.25-2.08c-0.23-0.57-0.68-1.05-1.15-1.55c-0.41-0.44-0.83-0.89-1.15-1.45l0.87-0.49
		c0.25,0.45,0.62,0.84,1.01,1.26c0.51,0.55,1.04,1.11,1.34,1.85c0.33,0.82,0.33,1.69,0.32,2.47c-0.01,1.4-0.02,2.85-0.41,4.27
		c-0.65,2.32-2.23,4.16-3.75,5.94C148.85,37.58,148.07,38.5,147.42,39.45z"/>
	<path class="st2" d="M151.34,41.02l-0.82-0.58c1.71-2.43,3.96-4.49,6.53-5.98c1.16-0.67,2.39-1.23,3.58-1.77
		c1.83-0.83,3.72-1.69,5.76-2.07l0.19,0.98c-1.92,0.37-3.76,1.2-5.54,2c-1.17,0.53-2.37,1.08-3.49,1.72
		C155.12,36.75,152.97,38.72,151.34,41.02z"/>
	<path class="st2" d="M179.39,49.33c-5.24,0-10.44-0.65-15.49-2.26l0.3-0.95c13.15,4.19,27.38,1.71,40.8-1.6l0.24,0.97
		C196.8,47.57,188.04,49.33,179.39,49.33z"/>
	<path class="st2" d="M216.9,62.48l-11-1.69c-4.27-0.65-8.69-1.33-12.99-2.37c-2.04-0.49-4.08-1.07-6.07-1.63
		c-4.46-1.26-9.06-2.57-13.72-2.9l0.07-1c4.76,0.33,9.42,1.65,13.92,2.93c1.97,0.56,4.01,1.14,6.03,1.62
		c4.26,1.03,8.65,1.7,12.9,2.35l11,1.69L216.9,62.48z"/>
	<path class="st2" d="M209.41,100.83c-1.84-3.32-3.42-6.86-4.94-10.29c-2.82-6.33-5.73-12.87-10.36-18.07
		c-4.36-4.89-10.03-8.4-15.51-11.79l0.53-0.85c5.55,3.43,11.28,6.98,15.73,11.98c4.74,5.32,7.68,11.93,10.53,18.33
		c1.52,3.41,3.08,6.93,4.9,10.21L209.41,100.83z"/>
	<path class="st2" d="M194.82,209.9l-0.94-0.35l3.32-8.85c0.91-2.43,1.85-4.94,2.44-7.5c1.2-5.19,0.99-10.61,0.79-15.86l-0.51-13.54
		c-0.11-2.86-0.22-5.81-0.59-8.67c-0.15-1.14-0.34-2.29-0.53-3.43c-0.5-2.96-1.01-6.03-0.76-9.09c0.28-3.46,1.57-6.9,3.64-9.69
		l0.8,0.6c-1.96,2.64-3.19,5.89-3.45,9.17c-0.24,2.94,0.27,5.94,0.75,8.85c0.19,1.16,0.39,2.31,0.54,3.47
		c0.38,2.91,0.49,5.88,0.6,8.76l0.51,13.54c0.2,5.31,0.41,10.8-0.82,16.12c-0.61,2.63-1.56,5.17-2.48,7.63L194.82,209.9z"/>
	<path class="st2" d="M122.61,264.21c-3.2,0-6.44-0.25-9.56-1.03c-11.41-2.84-20.03-12.26-26.95-19.83l-20.3-22.19l0.74-0.68
		l20.3,22.19c6.83,7.47,15.33,16.77,26.45,19.54c5.88,1.46,12.01,1.02,17.94,0.58c3.43-0.25,6.97-0.51,10.32-1.48
		c3.21-0.93,6.22-2.51,8.73-3.94c16.09-9.13,29.78-22.25,39.58-37.93c1.36-2.17,2.73-4.54,3.56-7.08c0.19-0.59,0.36-1.19,0.53-1.8
		c0.62-2.23,1.27-4.54,3.05-6.1l0.66,0.75c-1.56,1.36-2.14,3.43-2.75,5.62c-0.17,0.62-0.35,1.24-0.54,1.84
		c-0.87,2.65-2.28,5.07-3.67,7.3c-9.89,15.83-23.71,29.06-39.94,38.27c-2.57,1.46-5.64,3.07-8.95,4.03c-3.44,1-7.04,1.26-10.52,1.52
		C128.54,263.99,125.6,264.21,122.61,264.21z"/>
	<path class="st2" d="M87.49,264.56c-7.37-9.42-15.72-20.09-18.6-32.67c-0.6-2.64-0.96-5.35-1.31-7.98
		c-0.32-2.41-0.65-4.9-1.17-7.31c-0.33-1.55-0.76-3.12-1.17-4.63c-0.4-1.5-0.82-3.05-1.16-4.59c-0.44-2.03-0.75-4.11-1.05-6.12
		c-0.25-1.64-0.5-3.33-0.82-4.98c-1.09-5.58-3.03-11.06-4.91-16.36c-1.9-5.34-3.86-10.86-4.96-16.52l0.98-0.19
		c1.09,5.59,3.03,11.07,4.92,16.38c1.89,5.33,3.85,10.85,4.95,16.5c0.33,1.67,0.58,3.37,0.83,5.02c0.3,1.99,0.61,4.06,1.04,6.05
		c0.33,1.52,0.75,3.06,1.15,4.54c0.41,1.53,0.84,3.11,1.18,4.68c0.53,2.45,0.86,4.96,1.18,7.39c0.35,2.6,0.7,5.3,1.3,7.89
		c2.84,12.37,11.11,22.95,18.42,32.28L87.49,264.56z"/>
	<path class="st2" d="M80.21,143.44c-1.9-0.97-3.49-2.54-4.47-4.44l-0.07-0.13l0.35-0.11l0.08,0.24l-0.07,0.02
		c0.96,1.79,2.48,3.28,4.3,4.21L80.21,143.44z"/>
	<path class="st2" d="M160.61,140.38l-0.12-0.22c2.15-1.2,4.58-2.56,6.29-4.56l0.19,0.16C165.24,137.8,162.78,139.17,160.61,140.38z
		"/>
	<path class="st2" d="M15.16,178.12l-0.83-0.55c11.62-17.46,18.49-37.74,19.88-58.67c0.23-3.54,0.32-7.16,0.39-10.65
		c0.16-7.1,0.32-14.45,1.78-21.54c2.17-10.56,7.1-20.24,11.87-29.61c2.77-5.45,5.64-11.09,9.15-16.28
		c17.06-25.26,50.17-39.19,82.38-34.67c3.75,0.53,8.58,1.43,12.76,3.75c7.8,4.33,12.11,12.38,16.55,21.68l-0.9,0.43
		c-4.37-9.14-8.59-17.05-16.14-21.24c-4.04-2.24-8.76-3.12-12.42-3.63c-31.85-4.47-64.57,9.29-81.42,34.24
		c-3.47,5.14-6.33,10.75-9.09,16.17c-4.74,9.31-9.63,18.93-11.78,29.36c-1.44,7-1.6,14.3-1.76,21.36c-0.08,3.51-0.16,7.14-0.4,10.7
		C33.81,140.06,26.87,160.52,15.16,178.12z"/>
	<path class="st2" d="M42.7,327.88l-0.87-0.5c3.16-5.51,3.03-12.23,2.41-18.68c-0.69-7.25-1.76-13.03-3.36-18.19
		c-2.42-7.82-6.42-15.16-10.27-22.27c-2.43-4.47-4.94-9.1-7.05-13.81c-7.04-15.71-9.94-33.08-8.4-50.23
		c0.96-10.65,3.62-21.17,6.2-31.34l0.97,0.25c-2.57,10.13-5.23,20.61-6.18,31.18c-1.52,16.98,1.35,34.17,8.32,49.73
		c2.1,4.68,4.6,9.29,7.02,13.74c3.88,7.15,7.9,14.54,10.35,22.45c1.62,5.23,2.7,11.07,3.4,18.4C45.87,315.22,46,322.13,42.7,327.88z
		"/>
	<path class="st2" d="M74.55,325.59c-0.07,0-0.15-0.01-0.23-0.03c-0.41-0.09-0.85-0.46-0.9-0.97c-0.07-0.73,0.48-1.29,0.74-1.55
		c1.2-1.22,2.54-2.31,3.83-3.37c1.3-1.07,2.65-2.17,3.84-3.38c3.18-3.25,5.58-7.61,7.33-13.32c4.08-13.29,3.3-29.26-2.3-47.45
		c-2.62-8.5-6.02-16.89-9.31-25c-2.69-6.63-5.46-13.49-7.81-20.38c-0.6-1.76-1.17-3.53-1.75-5.31c-2.9-8.92-5.9-18.15-11.8-25.44
		l0.78-0.63c6.02,7.43,9.05,16.75,11.98,25.76c0.58,1.77,1.15,3.54,1.75,5.29c2.33,6.86,5.11,13.71,7.79,20.32
		c3.3,8.13,6.71,16.55,9.34,25.08c5.66,18.39,6.44,34.55,2.3,48.04c-1.8,5.87-4.28,10.36-7.57,13.73c-1.23,1.25-2.59,2.37-3.92,3.46
		c-1.27,1.04-2.59,2.12-3.75,3.29c-0.24,0.24-0.48,0.52-0.46,0.76c0.01,0.03,0.09,0.09,0.13,0.09c-0.04,0-0.09,0.03-0.11,0.07
		l0.86,0.51C75.14,325.44,74.86,325.59,74.55,325.59z"/>
	<path class="st2" d="M204.84,149.85c-0.78-1.98-0.83-4.12-0.88-6.2l-0.02-0.85c-0.33-10.3-3.37-20.38-8.81-29.13l0.85-0.53
		c5.53,8.91,8.63,19.15,8.96,29.63l0.02,0.86c0.05,1.99,0.1,4.04,0.81,5.85L204.84,149.85z"/>
	<path class="st2" d="M211.58,142.03c-0.36-6.62-0.73-13.47-1.36-20.21c-0.57-6.15-1.42-13.24-4.32-19.56
		c-4.21-9.17-12.4-16.04-19.63-22.1l0.64-0.77c7.31,6.13,15.59,13.08,19.89,22.45c2.96,6.46,3.83,13.65,4.41,19.88
		c0.63,6.76,1,13.62,1.36,20.25L211.58,142.03z"/>
	<path class="st2" d="M227.02,115.78l-0.95-0.32c2.31-6.92,4.93-14.76,4.4-22.53c-0.48-6.96-3.44-13.42-5.97-18.27
		c-4.72-9.06-10.63-17.46-17.56-24.97l0.73-0.68c6.99,7.57,12.95,16.04,17.71,25.18c2.57,4.93,5.59,11.51,6.08,18.66
		C232.01,100.83,229.36,108.77,227.02,115.78z"/>
	<path class="st2" d="M233.57,231.57c-2.41-4.02-5.83-7.52-9.13-10.92c-4.78-4.91-9.72-9.99-11.64-16.66
		c-1.35-4.68-1.06-9.54-0.58-14.95c1.17-13.2,2.49-23.23,4.26-32.52c0.18-0.93,0.36-1.86,0.55-2.8c0.99-5,2-10.16,2.02-15.3
		c0-1.12-0.04-2.58-0.36-3.98c-1.13-4.86-5.31-8.31-9.85-11.7l0.6-0.8c4.7,3.51,9.01,7.08,10.22,12.27c0.35,1.5,0.39,3.04,0.39,4.21
		c-0.01,5.23-1.04,10.45-2.04,15.49c-0.18,0.93-0.37,1.86-0.54,2.79c-1.76,9.26-3.07,19.25-4.24,32.42
		c-0.47,5.31-0.76,10.07,0.55,14.59c1.85,6.43,6.49,11.19,11.4,16.24c3.34,3.43,6.79,6.98,9.27,11.1L233.57,231.57z"/>
	<path class="st2" d="M235.03,254.9c-7.47-3.98-14.59-8.69-21.18-14c-3.17-2.56-6.42-5.43-8.73-9.04
		c-4.71-7.37-5.36-17.57-1.93-30.32l0.96,0.26c-3.36,12.46-2.75,22.39,1.8,29.52c2.24,3.5,5.42,6.3,8.52,8.81
		c6.53,5.28,13.6,9.95,21.02,13.9L235.03,254.9z"/>
	<path class="st2" d="M115.66,316.92c-10.35-14.13-21.15-28.22-32.1-41.89l0.78-0.63c10.96,13.68,21.77,27.79,32.13,41.93
		L115.66,316.92z"/>
	<path class="st2" d="M106.3,322.42l-0.59-0.81c3.99-2.93,8.27-5.61,12.41-8.19c7.29-4.56,14.84-9.28,20.93-15.48
		c4.41-4.49,8.08-9.79,11.63-14.91c0.76-1.09,1.51-2.18,2.27-3.26c7.77-11.04,16.46-21.57,25.83-31.3l0.72,0.69
		c-9.33,9.69-17.99,20.18-25.74,31.18c-0.76,1.08-1.52,2.17-2.27,3.26c-3.57,5.15-7.27,10.48-11.74,15.04
		c-6.17,6.29-13.77,11.03-21.11,15.63C114.53,316.84,110.27,319.51,106.3,322.42z"/>
	<path class="st2" d="M280.06,271.96c-12.83-3.26-24.79-12.93-32.82-26.52c-3.98-6.74-6.92-14.12-9.76-21.25
		c-6.43-16.15-13.09-32.86-14.34-50.6c-0.47-6.65-0.16-13.41,0.15-19.95c0.2-4.42,0.42-8.98,0.38-13.47
		c-0.13-17.71-4.11-35.57-11.53-51.65l0.91-0.42c7.48,16.21,11.5,34.21,11.62,52.07c0.03,4.51-0.18,9.09-0.38,13.52
		c-0.3,6.51-0.61,13.24-0.15,19.83c1.24,17.59,7.86,34.22,14.27,50.3c2.83,7.1,5.75,14.44,9.7,21.11
		c7.9,13.36,19.63,22.86,32.21,26.06L280.06,271.96z"/>
	<path class="st2" d="M226.55,76.72c-3.45-10.18-7.37-21.71-15.41-29.94c-3.58-3.66-8.2-6.91-14.56-10.24
		c-3.76-1.97-8.77-4.33-14.06-5.11c-6.15-0.9-12.38,0.29-18.4,1.44l-0.19-0.98c6.1-1.17,12.41-2.37,18.73-1.45
		c5.45,0.8,10.55,3.2,14.38,5.21c6.45,3.38,11.16,6.69,14.81,10.43c8.2,8.39,12.16,20.04,15.64,30.32L226.55,76.72z"/>
	<path class="st2" d="M116.14,192.13c-2.21,0-3.82-0.59-4.8-1.77c-0.29-0.35-0.5-0.72-0.62-1.1c-0.17-0.56-0.15-1.12-0.13-1.66
		c0.01-0.34,0.03-0.66-0.01-0.96l0.99-0.12c0.04,0.38,0.03,0.76,0.01,1.12c-0.02,0.48-0.04,0.93,0.08,1.33
		c0.08,0.25,0.22,0.51,0.43,0.75c0.81,0.96,2.24,1.45,4.21,1.41c1.36-0.02,2.26-0.29,2.83-0.84c0.27-0.26,0.5-0.62,0.7-1.1
		c0.25-0.59,0.39-1.2,0.44-1.83l1,0.07c-0.05,0.74-0.23,1.46-0.51,2.14c-0.25,0.61-0.56,1.07-0.93,1.43
		c-1.01,0.98-2.49,1.11-3.51,1.13C116.27,192.13,116.2,192.13,116.14,192.13z"/>
	<path class="st2" d="M116.23,195.02c-0.24,0-0.5-0.01-0.75-0.02c-1.57-0.08-5.36-0.56-6.7-3.27c-0.42-0.84-0.63-1.74-0.84-2.61
		c-0.12-0.49-0.25-1.04-0.18-1.63c0.14-1.17,1.04-2.02,1.69-2.64l0.69,0.72c-0.7,0.67-1.29,1.28-1.39,2.03
		c-0.05,0.41,0.06,0.85,0.16,1.28c0.2,0.82,0.4,1.66,0.76,2.4c1.11,2.24,4.46,2.64,5.85,2.71c2.43,0.12,4.06-0.38,5.59-1.74
		c0.72-0.64,1.24-1.27,1.59-1.95c0.58-1.11,0.72-2.45,0.39-3.66l0.96-0.26c0.4,1.45,0.23,3.05-0.47,4.38
		c-0.41,0.78-1,1.51-1.81,2.23C120.2,194.41,118.55,195.02,116.23,195.02z"/>
	<path class="st2" d="M108.99,160.93l-0.92-0.39c1.5-3.55,1.97-7.42,2.39-11.75c0.37-3.84,0.62-7.29-0.13-10.59
		c-0.99-4.4-3.75-8.35-6.19-11.83l0.82-0.57c2.49,3.56,5.31,7.59,6.34,12.18c0.78,3.45,0.53,6.98,0.15,10.91
		C111.03,153.3,110.55,157.25,108.99,160.93z"/>
	<path class="st2" d="M131.45,149.92c-3.54-3.1-4.87-8.53-3.18-12.92c0.37-0.95,0.85-1.83,1.31-2.68l4.17-7.64l0.88,0.48l-4.17,7.64
		c-0.45,0.82-0.91,1.67-1.26,2.56c-1.55,4.01-0.33,8.98,2.9,11.81L131.45,149.92z"/>
	<path class="st2" d="M161.92,169.67c-8.43,0-17.38-4.52-24.67-12.66c-8.14-9.09-12.04-20.19-9.71-27.63
		c2.56-8.16,13.66-14.82,28.27-16.97c14.72-2.17,27.47,1.2,32.48,8.58c4.29,6.31,4.29,17.13,0,27.57
		c-4.57,11.13-12.79,18.86-21.99,20.68C164.86,169.53,163.4,169.67,161.92,169.67z M164.46,112.77c-2.72,0-5.57,0.21-8.5,0.64
		c-11.66,1.72-24.67,7.41-27.46,16.28l0,0c-2.24,7.11,1.58,17.83,9.5,26.66c8.33,9.3,18.84,13.75,28.11,11.92
		c8.87-1.75,16.82-9.26,21.26-20.07c4.16-10.14,4.2-20.59,0.1-26.63C183.65,115.94,175.04,112.77,164.46,112.77z"/>
	<path class="st2" d="M79.78,173.84c-0.69,0-1.37-0.03-2.06-0.09c-9.47-0.87-18.56-7.8-24.33-18.54
		c-5.41-10.08-6.55-20.98-2.89-27.79c4.28-7.96,16.77-12.68,31.85-12.05c14.95,0.64,26.83,6.19,30.27,14.14l0,0
		c3.14,7.25,0.37,18.85-6.89,28.86C98.62,168.18,89.06,173.84,79.78,173.84z M79.63,116.31c-13.47,0-24.4,4.42-28.24,11.58
		c-3.5,6.52-2.37,17.06,2.89,26.84c5.61,10.44,14.41,17.18,23.54,18.02c9.54,0.88,19.67-4.72,27.1-14.96
		c7.06-9.74,9.78-20.94,6.78-27.88c-3.74-8.65-17.46-13.03-29.39-13.54C81.41,116.33,80.51,116.31,79.63,116.31z"/>
	<path class="st2" d="M113.76,138.38l-1-0.09c0-0.06,0.58-5.5,7.11-6.24c5.45-0.62,8.27,4.35,8.29,4.4l-0.87,0.49
		c-0.1-0.18-2.54-4.44-7.31-3.89C114.26,133.69,113.77,138.34,113.76,138.38z"/>
	
		<rect x="186.8" y="116" transform="matrix(0.7929 -0.6093 0.6093 0.7929 -30.6056 142.9454)" class="st2" width="16.4" height="1"/>
</g>
<g id="outline_ansikt">
	<path d="M135.7,137.63l-0.46-0.89c5.74-3,12.24-6.38,19.29-6.19c3.31,0.09,6.83,1.02,10.46,2.74l-0.43,0.9
		c-3.5-1.66-6.89-2.55-10.06-2.64C147.74,131.37,141.33,134.69,135.7,137.63z"/>
	<path d="M94.32,138.45c-3.58-2.43-7.47-3.93-11.25-4.33c-4.22-0.45-8.33,0.47-11.56,2.58c-0.38,0.25-0.56,0.59-0.54,0.67l-0.7,0.72
		c-0.22-0.23-0.33-0.52-0.3-0.84c0.06-0.59,0.57-1.11,0.99-1.38c3.43-2.23,7.77-3.2,12.21-2.73c3.94,0.42,7.99,1.97,11.71,4.5
		L94.32,138.45z"/>
	<path d="M83.34,143.85c-0.43,0-0.86-0.03-1.25-0.07c-0.93-0.1-2.12-0.3-3.12-0.95c-1.3-0.86-2.12-2.5-2.07-4.16
		c0.07-2.33,1.83-4.39,4.02-4.68l0.13,0.99c-1.68,0.23-3.1,1.9-3.15,3.72c-0.04,1.33,0.6,2.62,1.62,3.3
		c0.81,0.54,1.85,0.71,2.67,0.79c1.62,0.17,3.81,0.08,4.96-1.37c0.57-0.72,0.84-1.75,0.75-2.91c-0.08-1.1-0.44-2.18-0.79-3.22
		l0.95-0.32c0.37,1.1,0.75,2.24,0.84,3.46c0.1,1.41-0.24,2.69-0.97,3.61C86.81,143.47,84.98,143.85,83.34,143.85z"/>
	<path d="M65.56,137.72l-0.91-0.42c0.92-1.96,2.36-3.63,4.18-4.82c2.5-1.64,5.45-2.24,8.27-2.63c4.92-0.69,8.62-0.65,12,0.14
		c4.32,1.01,7.95,3.43,9.97,6.62l-0.85,0.53c-1.88-2.97-5.28-5.22-9.35-6.18c-3.25-0.76-6.83-0.8-11.63-0.13
		c-2.7,0.38-5.52,0.95-7.86,2.48C67.75,134.39,66.39,135.95,65.56,137.72z"/>
	<path d="M133.43,135.54l-0.57-0.82c4.01-2.82,8.84-5.81,14.21-6.62c2.78-0.42,5.64-0.24,8.32,0.01c1.26,0.12,2.6,0.27,3.93,0.54
		c2.74,0.56,5.43,1.67,7.77,3.2l-0.55,0.84c-2.24-1.47-4.8-2.53-7.42-3.06c-1.28-0.26-2.59-0.4-3.82-0.52
		c-2.61-0.25-5.4-0.42-8.08-0.02C142.06,129.87,137.35,132.78,133.43,135.54z"/>
	<path d="M149.76,140.06c-0.57,0-1.14-0.02-1.7-0.06c-1.11-0.08-2.34-0.28-3.16-1.18c-0.72-0.8-0.86-1.88-0.9-2.73
		c-0.03-0.6-0.02-1.3,0.23-1.97c0.29-0.77,0.88-1.34,1.58-1.51l0.24,0.97c-0.37,0.09-0.71,0.43-0.88,0.89
		c-0.19,0.49-0.19,1.07-0.16,1.56c0.03,0.69,0.14,1.55,0.65,2.11c0.58,0.64,1.58,0.79,2.49,0.85c2.03,0.14,4.06,0.02,6.06-0.37
		c0.3-0.06,0.58-0.12,0.8-0.25c0.31-0.18,0.55-0.53,0.8-0.9c0.32-0.5,0.65-1.03,0.82-1.6c0.34-1.16-0.06-2.53-0.98-3.32l0.65-0.76
		c1.23,1.06,1.74,2.81,1.29,4.36c-0.2,0.7-0.58,1.3-0.94,1.86c-0.3,0.46-0.63,0.93-1.13,1.22c-0.36,0.21-0.75,0.29-1.12,0.37
		C152.86,139.91,151.31,140.06,149.76,140.06z"/>
	<path d="M129.58,121.77l-0.98-0.2c0.29-1.45,0.63-2.98,1.26-4.39c0.81-1.84,2.1-3.44,3.71-4.64l0.6,0.8
		c-1.48,1.1-2.65,2.57-3.4,4.25C130.19,118.9,129.88,120.32,129.58,121.77z"/>
	<path d="M128.59,122.48l-0.34-0.94c6.76-2.46,13.69-4.77,20.59-6.87c2.84-0.86,5.87-1.75,8.97-2.31
		c6.71-1.21,13.62-0.86,19.49-0.35l-0.09,1c-5.8-0.51-12.63-0.86-19.22,0.33c-3.05,0.55-6.04,1.43-8.86,2.28
		C142.24,117.72,135.33,120.02,128.59,122.48z"/>
	<path d="M132.8,113.06l-0.22-0.98c11.19-2.51,23.87-5.35,36.08-3.44c3.42,0.54,6.8,1.44,10.05,2.69l-0.36,0.93
		c-3.18-1.22-6.49-2.11-9.85-2.64C156.48,107.76,143.9,110.57,132.8,113.06z"/>
	<path d="M98.92,123.63c-0.79-1.63-0.89-3.43-0.98-5.17c-0.08-1.51-0.16-2.94-0.65-4.26l0.94-0.35c0.54,1.47,0.62,3.04,0.71,4.56
		c0.09,1.72,0.18,3.35,0.88,4.79L98.92,123.63z"/>
	<path d="M98.02,123.45c-10.3-3.25-20.99-5.22-31.77-5.84c-1.53-0.09-3.02-0.15-4.49,0.09c-2.77,0.45-5.25,1.94-7.65,3.37l-0.1-0.17
		l-0.15,0.3l-1.06-0.52l0.79-0.47c2.36-1.41,5.04-3.01,8-3.5c1.57-0.26,3.19-0.19,4.71-0.1c10.86,0.63,21.64,2.61,32.01,5.88
		L98.02,123.45z"/>
	<path d="M53.04,120.22l-0.76-0.65l2.52-2.97c1.65-1.94,3.7-4.36,6.48-5.37c1.33-0.48,2.74-0.61,3.96-0.7
		c11.01-0.77,21.95,1.39,32.53,3.48L97.56,115c-10.52-2.08-21.39-4.23-32.26-3.47c-1.15,0.08-2.49,0.2-3.69,0.64
		c-2.53,0.92-4.4,3.12-6.05,5.07L53.04,120.22z"/>
	<path d="M105.17,189.54c-1.22-0.78-2.32-1.72-3.27-2.8c-0.36-0.41-0.72-0.87-0.86-1.44c-0.16-0.61-0.03-1.41,0.6-1.85
		c0.51-0.35,1.13-0.3,1.61-0.22c1.13,0.2,2.21,0.59,3.2,1.18c0.3,0.18,0.6,0.38,0.89,0.57c0.38,0.26,0.74,0.5,1.13,0.7
		c1.76,0.94,4.11,1.04,6.6,0.3c1.76-0.53,3.45-1.4,5.08-2.25c0.45-0.23,0.89-0.46,1.34-0.69c0.84-0.42,1.68-0.81,2.62-0.88
		c1.02-0.07,2,0.28,2.64,0.95c0.74,0.77,0.95,1.94,0.51,2.83c-0.36,0.74-1.03,1.14-1.67,1.53c-0.32,0.19-0.63,0.38-0.88,0.59
		l-0.65-0.76c0.32-0.27,0.67-0.49,1.01-0.69c0.54-0.33,1.06-0.64,1.29-1.11c0.25-0.52,0.12-1.23-0.33-1.7
		c-0.43-0.45-1.11-0.69-1.84-0.64c-0.76,0.05-1.49,0.4-2.24,0.77c-0.44,0.22-0.89,0.45-1.33,0.68c-1.67,0.87-3.4,1.77-5.26,2.32
		c-2.74,0.82-5.35,0.69-7.35-0.37c-0.43-0.23-0.83-0.5-1.22-0.76c-0.28-0.19-0.55-0.37-0.84-0.54c-0.89-0.52-1.85-0.88-2.86-1.05
		c-0.3-0.05-0.66-0.09-0.88,0.06c-0.19,0.13-0.28,0.47-0.2,0.77c0.09,0.34,0.32,0.66,0.65,1.03c0.89,1.01,1.92,1.89,3.06,2.62
		L105.17,189.54z"/>
	<path d="M127.3,190.56l-0.38-0.93c2.2-0.89,3.9-1.96,5.2-3.27c1.53-1.54,2.46-3.42,2.63-5.3c0.14-1.63-0.29-3.41-1.24-5.16
		c-0.91-1.67-2.22-3.16-3.37-4.39l0.73-0.68c1.2,1.28,2.55,2.82,3.52,4.59c1.05,1.92,1.52,3.9,1.36,5.72
		c-0.18,2.11-1.21,4.21-2.91,5.92C131.43,188.48,129.62,189.62,127.3,190.56z"/>
	<path d="M102.82,191.39c-1.37-0.75-2.79-1.53-4.05-2.52c-1.45-1.14-2.49-2.42-3.08-3.8c-0.66-1.54-0.76-3.23-0.78-4.38
		c-0.04-2.47,0.31-4.67,1.05-6.54c0.29-0.74,0.65-1.45,0.99-2.14c0.17-0.33,0.33-0.66,0.49-0.99c0.86-1.81,1.51-3.72,1.92-5.69
		l0.98,0.21c-0.43,2.04-1.1,4.03-2,5.91c-0.16,0.34-0.33,0.67-0.5,1.01c-0.34,0.67-0.68,1.36-0.96,2.06
		c-0.69,1.75-1.02,3.83-0.98,6.17c0.02,1.06,0.11,2.62,0.7,4c0.53,1.22,1.46,2.37,2.78,3.41c1.2,0.94,2.58,1.7,3.91,2.43
		L102.82,191.39z"/>
	<path d="M95.72,219.85c-1.85,0-3.7-0.21-5.49-0.64l0.23-0.97c3.46,0.83,7.12,0.82,10.58-0.01l0.23,0.97
		C99.46,219.63,97.59,219.85,95.72,219.85z"/>
	<path d="M114.23,220.06c-3.79,0-7.5-0.46-10.88-0.99l0.15-0.99c6.1,0.95,13.24,1.68,19.94-0.16l0.27,0.96
		C120.58,219.75,117.38,220.06,114.23,220.06z"/>
	<path d="M142.08,218.83c-4.29,0-8.61-0.2-12.87-0.6l0.09-1c5,0.47,10.09,0.66,15.11,0.58l0.02,1
		C143.64,218.82,142.86,218.83,142.08,218.83z"/>
	<path d="M93.65,216.88l-0.15-0.99c2.7-0.42,5.27-1.61,7.74-2.77c1.45-0.68,2.94-1.38,4.47-1.93c0.45-0.16,0.93-0.32,1.44-0.32
		c0.01,0,0.01,0,0.02,0c0.64,0,1.21,0.25,1.71,0.46c1.35,0.57,2.88,1.21,4.35,1.04c0.83-0.1,1.61-0.44,2.43-0.81
		c0.47-0.21,0.95-0.42,1.45-0.59c2.69-0.91,5.87-0.58,9.72,1.02c0.96,0.4,1.91,0.84,2.84,1.27c1.93,0.9,3.92,1.83,6,2.33l-0.23,0.97
		c-2.17-0.52-4.22-1.47-6.19-2.39c-0.91-0.43-1.86-0.87-2.79-1.26c-3.62-1.5-6.57-1.82-9.02-0.99c-0.46,0.15-0.9,0.35-1.37,0.56
		c-0.86,0.38-1.74,0.77-2.72,0.88c-1.75,0.22-3.4-0.49-4.86-1.11c-0.44-0.19-0.89-0.38-1.33-0.38c-0.34,0.04-0.73,0.12-1.11,0.26
		c-1.48,0.53-2.96,1.22-4.39,1.89C99.13,215.21,96.5,216.44,93.65,216.88z"/>
	<path d="M108.78,240.45l-0.62-0.78c2.53-2.01,5.92-2.59,8.59-2.86c3.37-0.35,6.77-0.38,10.14-0.1l-0.08,1
		c-3.3-0.28-6.65-0.24-9.95,0.1C114.16,238.08,111.09,238.61,108.78,240.45z"/>
	<path d="M113.09,231.54c-1.24,0-2.51-0.04-3.83-0.1c-3.15-0.17-6.49-0.52-9.54-1.94l0.42-0.91c2.89,1.35,6.11,1.69,9.16,1.85
		c8.48,0.44,15.42-0.57,21.21-3.11l0.4,0.92C125.9,230.45,120.03,231.54,113.09,231.54z"/>
	<polygon points="106.71,222.48 105.91,221.88 107.91,218.89 108.74,219.44 107.27,221.65 107.3,221.67 	"/>
	<rect x="108.75" y="220.5" transform="matrix(0.0664 -0.9978 0.9978 0.0664 -117.8153 316.0853)" width="2.51" height="1"/>
	<path d="M120.58,222.49c-0.97-0.8-1.92-1.66-2.84-2.56l0.7-0.71c0.89,0.87,1.83,1.72,2.78,2.5L120.58,222.49z"/>
	<rect x="122.58" y="218.29" transform="matrix(0.7856 -0.6188 0.6188 0.7856 -109.7606 123.3399)" width="1" height="3.5"/>
	<path d="M45.8,166.3L44.84,166c4.37-14.15,8.89-28.78,9.56-43.83c0.19-4.31,0.07-8.73-0.05-12.99c-0.2-6.97-0.4-14.17,0.77-21.18
		c2.64-15.73,12.24-30.67,27.04-42.07c2.54-1.95,5.61-4.13,9.16-5.43c7.44-2.73,15.91-1.2,22.71,0.03l-0.18,0.98
		c-6.68-1.21-15-2.72-22.19-0.08c-3.43,1.26-6.42,3.38-8.9,5.28c-14.6,11.25-24.07,25.97-26.66,41.44
		c-1.16,6.91-0.96,14.06-0.76,20.98c0.12,4.29,0.25,8.72,0.05,13.07C54.72,137.4,50.19,152.09,45.8,166.3z"/>
	<path d="M42.31,137.66c-3.41-11.16-3.62-23.14-3.37-33.38c0.19-8.05,0.69-16.66,2.96-25.06c1.96-7.24,5.02-13.41,9.11-18.33
		c6.6-7.96,15.98-12.85,24.26-16.81c7.57-3.62,14.03-6.3,20.98-7.59c5.75-1.06,14.23-1.5,22.04,2.46l-0.45,0.89
		c-7.55-3.83-15.81-3.4-21.4-2.37c-6.84,1.27-13.24,3.92-20.73,7.51c-8.18,3.92-17.45,8.75-23.92,16.55
		c-3.99,4.81-6.99,10.85-8.91,17.95c-2.24,8.3-2.73,16.83-2.92,24.82c-0.24,10.16-0.04,22.04,3.33,33.06L42.31,137.66z"/>
	<path d="M126.57,41.14l-0.94-0.35c0.87-2.35,1.77-4.79,1.7-7.3c-0.06-1.94-0.72-3.98-1.91-5.91c-2.45-3.95-6.85-6.74-11.46-7.28
		l0.12-0.99c4.92,0.57,9.59,3.54,12.2,7.74c1.29,2.08,2,4.29,2.06,6.41C128.4,36.17,127.43,38.81,126.57,41.14z"/>
	<path d="M137.23,38.93l-0.97-0.23c1.2-5.02,0.85-10.45-0.99-15.28c-0.19-0.51-0.43-1.1-0.82-1.54c-0.44-0.5-1.06-0.82-1.67-1.09
		c-1.33-0.6-2.73-1.04-4.16-1.31l0.19-0.98c1.51,0.29,2.99,0.75,4.38,1.38c0.68,0.31,1.45,0.7,2.02,1.35c0.49,0.56,0.77,1.25,1,1.84
		C138.11,28.07,138.47,33.71,137.23,38.93z"/>
	<path d="M143.42,38.45l-0.83-0.56c0.68-1,1.48-1.94,2.26-2.84c1.52-1.77,2.96-3.44,3.55-5.55c0.36-1.29,0.37-2.67,0.37-4
		c0-0.71,0.01-1.45-0.25-2.08c-0.23-0.57-0.68-1.05-1.15-1.55c-0.41-0.44-0.83-0.89-1.15-1.45l0.87-0.49
		c0.25,0.45,0.62,0.84,1.01,1.26c0.51,0.55,1.04,1.11,1.34,1.85c0.33,0.82,0.33,1.69,0.32,2.47c-0.01,1.4-0.02,2.85-0.41,4.27
		c-0.65,2.32-2.23,4.16-3.75,5.94C144.85,36.58,144.07,37.5,143.42,38.45z"/>
	<path d="M147.34,40.02l-0.82-0.58c1.71-2.43,3.96-4.49,6.53-5.98c1.16-0.67,2.39-1.23,3.58-1.77c1.83-0.83,3.72-1.69,5.76-2.07
		l0.19,0.98c-1.92,0.37-3.76,1.2-5.54,2c-1.17,0.53-2.37,1.08-3.49,1.72C151.12,35.75,148.97,37.72,147.34,40.02z"/>
	<path d="M175.39,48.33c-5.24,0-10.44-0.65-15.49-2.26l0.3-0.95c13.15,4.19,27.38,1.71,40.8-1.6l0.24,0.97
		C192.8,46.57,184.04,48.33,175.39,48.33z"/>
	<path d="M212.9,61.48l-11-1.69c-4.27-0.65-8.69-1.33-12.99-2.37c-2.04-0.49-4.08-1.07-6.07-1.63c-4.46-1.26-9.06-2.57-13.72-2.9
		l0.07-1c4.76,0.33,9.42,1.65,13.92,2.93c1.97,0.56,4.01,1.14,6.03,1.62c4.26,1.03,8.65,1.7,12.9,2.35l11,1.69L212.9,61.48z"/>
	<path d="M205.41,99.83c-1.84-3.32-3.42-6.86-4.94-10.29c-2.82-6.33-5.73-12.87-10.36-18.07c-4.36-4.89-10.03-8.4-15.51-11.79
		l0.53-0.85c5.55,3.43,11.28,6.98,15.73,11.98c4.74,5.32,7.68,11.93,10.53,18.33c1.52,3.41,3.08,6.93,4.9,10.21L205.41,99.83z"/>
	<path d="M190.82,208.9l-0.94-0.35l3.32-8.85c0.91-2.43,1.85-4.94,2.44-7.5c1.2-5.19,0.99-10.61,0.79-15.86l-0.51-13.54
		c-0.11-2.86-0.22-5.81-0.59-8.67c-0.15-1.14-0.34-2.29-0.53-3.43c-0.5-2.96-1.01-6.03-0.76-9.09c0.28-3.46,1.57-6.9,3.64-9.69
		l0.8,0.6c-1.96,2.64-3.19,5.89-3.45,9.17c-0.24,2.94,0.27,5.94,0.75,8.85c0.19,1.16,0.39,2.31,0.54,3.47
		c0.38,2.91,0.49,5.88,0.6,8.76l0.51,13.54c0.2,5.31,0.41,10.8-0.82,16.12c-0.61,2.63-1.56,5.17-2.48,7.63L190.82,208.9z"/>
	<path d="M118.61,263.21c-3.2,0-6.44-0.25-9.56-1.03c-11.41-2.84-20.03-12.26-26.95-19.83l-20.3-22.19l0.74-0.68l20.3,22.19
		c6.83,7.47,15.33,16.77,26.45,19.54c5.88,1.47,12.01,1.02,17.94,0.58c3.43-0.25,6.97-0.51,10.32-1.48
		c3.21-0.93,6.22-2.51,8.73-3.94c16.09-9.13,29.78-22.25,39.58-37.93c1.36-2.17,2.73-4.54,3.56-7.08c0.19-0.59,0.36-1.19,0.53-1.8
		c0.62-2.23,1.27-4.54,3.05-6.1l0.66,0.75c-1.56,1.36-2.14,3.43-2.75,5.62c-0.17,0.62-0.35,1.24-0.54,1.84
		c-0.87,2.65-2.28,5.07-3.67,7.3c-9.89,15.83-23.71,29.06-39.94,38.27c-2.57,1.46-5.64,3.07-8.95,4.03c-3.44,1-7.04,1.26-10.52,1.52
		C124.54,262.99,121.6,263.21,118.61,263.21z"/>
	<path d="M83.49,263.56c-7.37-9.42-15.72-20.09-18.6-32.67c-0.6-2.64-0.96-5.35-1.31-7.98c-0.32-2.41-0.65-4.9-1.17-7.31
		c-0.33-1.55-0.76-3.12-1.17-4.63c-0.4-1.5-0.82-3.05-1.16-4.59c-0.44-2.03-0.75-4.11-1.05-6.12c-0.25-1.64-0.5-3.33-0.82-4.98
		c-1.09-5.58-3.03-11.06-4.91-16.36c-1.9-5.34-3.86-10.86-4.96-16.52l0.98-0.19c1.09,5.59,3.03,11.07,4.92,16.38
		c1.89,5.33,3.85,10.85,4.95,16.5c0.33,1.67,0.58,3.37,0.83,5.02c0.3,1.99,0.61,4.06,1.04,6.05c0.33,1.52,0.75,3.06,1.15,4.54
		c0.41,1.53,0.84,3.11,1.18,4.68c0.53,2.45,0.86,4.96,1.18,7.39c0.35,2.6,0.7,5.3,1.3,7.89c2.84,12.37,11.11,22.95,18.42,32.28
		L83.49,263.56z"/>
	<path d="M76.21,142.44c-1.9-0.97-3.49-2.54-4.47-4.44l-0.07-0.13l0.35-0.11l0.08,0.24l-0.07,0.02c0.96,1.79,2.48,3.28,4.3,4.21
		L76.21,142.44z"/>
	<path d="M156.61,139.38l-0.12-0.22c2.15-1.2,4.58-2.56,6.29-4.56l0.19,0.16C161.24,136.8,158.78,138.17,156.61,139.38z"/>
	<path d="M11.16,177.12l-0.83-0.55c11.62-17.46,18.49-37.74,19.88-58.67c0.23-3.54,0.32-7.16,0.39-10.65
		c0.16-7.1,0.32-14.45,1.78-21.54c2.17-10.56,7.1-20.24,11.87-29.61c2.77-5.45,5.64-11.09,9.15-16.28
		c17.06-25.26,50.17-39.19,82.38-34.67c3.75,0.53,8.58,1.43,12.76,3.75c7.8,4.33,12.11,12.38,16.55,21.68l-0.9,0.43
		c-4.37-9.14-8.59-17.05-16.14-21.24c-4.04-2.24-8.76-3.12-12.42-3.63c-31.85-4.46-64.57,9.29-81.42,34.24
		c-3.47,5.14-6.33,10.75-9.09,16.17c-4.74,9.31-9.63,18.93-11.78,29.36c-1.44,7-1.6,14.3-1.76,21.36c-0.08,3.51-0.16,7.14-0.4,10.7
		C29.81,139.06,22.87,159.52,11.16,177.12z"/>
	<path d="M38.7,326.88l-0.87-0.5c3.16-5.51,3.03-12.23,2.41-18.68c-0.69-7.25-1.76-13.03-3.36-18.19
		c-2.42-7.82-6.42-15.16-10.27-22.27c-2.43-4.47-4.94-9.1-7.05-13.81c-7.04-15.71-9.94-33.08-8.4-50.23
		c0.96-10.65,3.62-21.17,6.2-31.34l0.97,0.25c-2.57,10.13-5.23,20.61-6.18,31.18c-1.52,16.98,1.35,34.17,8.32,49.73
		c2.1,4.68,4.6,9.29,7.02,13.74c3.88,7.15,7.9,14.54,10.35,22.45c1.62,5.23,2.7,11.07,3.4,18.4C41.87,314.22,42,321.13,38.7,326.88z
		"/>
	<path d="M70.55,324.59c-0.07,0-0.15-0.01-0.23-0.03c-0.41-0.09-0.85-0.46-0.9-0.97c-0.07-0.73,0.48-1.29,0.74-1.55
		c1.2-1.22,2.54-2.31,3.83-3.37c1.3-1.07,2.65-2.17,3.84-3.38c3.18-3.25,5.58-7.61,7.33-13.32c4.08-13.29,3.3-29.26-2.3-47.45
		c-2.62-8.5-6.02-16.89-9.31-25c-2.69-6.63-5.46-13.49-7.81-20.38c-0.6-1.76-1.17-3.53-1.75-5.31c-2.9-8.92-5.9-18.15-11.8-25.44
		l0.78-0.63c6.02,7.43,9.05,16.75,11.98,25.76c0.58,1.77,1.15,3.54,1.75,5.29c2.33,6.86,5.11,13.71,7.79,20.32
		c3.3,8.13,6.71,16.55,9.34,25.08c5.66,18.39,6.44,34.55,2.3,48.04c-1.8,5.87-4.28,10.36-7.57,13.73c-1.23,1.25-2.59,2.37-3.92,3.46
		c-1.27,1.04-2.59,2.12-3.75,3.29c-0.24,0.24-0.48,0.52-0.46,0.76c0.01,0.03,0.09,0.09,0.13,0.09c-0.03,0-0.08,0.03-0.11,0.07
		l0.86,0.51C71.14,324.44,70.86,324.59,70.55,324.59z"/>
	<path d="M200.84,148.85c-0.78-1.98-0.83-4.12-0.88-6.2l-0.02-0.85c-0.33-10.3-3.37-20.38-8.81-29.13l0.85-0.53
		c5.53,8.91,8.63,19.15,8.96,29.63l0.02,0.86c0.05,1.99,0.1,4.04,0.81,5.85L200.84,148.85z"/>
	<path d="M207.58,141.03c-0.36-6.62-0.73-13.47-1.36-20.21c-0.57-6.15-1.42-13.24-4.32-19.56c-4.21-9.17-12.4-16.04-19.63-22.1
		l0.64-0.77c7.31,6.13,15.59,13.08,19.89,22.45c2.96,6.46,3.83,13.65,4.41,19.88c0.63,6.76,1,13.62,1.36,20.25L207.58,141.03z"/>
	<path d="M223.02,114.78l-0.95-0.32c2.31-6.92,4.93-14.76,4.4-22.53c-0.48-6.96-3.44-13.42-5.97-18.27
		c-4.72-9.06-10.63-17.46-17.56-24.97l0.73-0.68c6.99,7.57,12.95,16.04,17.71,25.18c2.57,4.93,5.59,11.51,6.08,18.66
		C228.01,99.83,225.36,107.77,223.02,114.78z"/>
	<path d="M229.57,230.57c-2.41-4.02-5.83-7.52-9.13-10.92c-4.78-4.91-9.72-9.99-11.64-16.66c-1.35-4.68-1.06-9.54-0.58-14.95
		c1.17-13.2,2.49-23.23,4.26-32.52c0.18-0.93,0.36-1.86,0.55-2.8c0.99-5,2-10.16,2.02-15.3c0-1.12-0.04-2.58-0.36-3.98
		c-1.13-4.86-5.31-8.31-9.85-11.7l0.6-0.8c4.7,3.51,9.01,7.08,10.22,12.27c0.35,1.5,0.39,3.04,0.39,4.21
		c-0.01,5.23-1.04,10.45-2.04,15.49c-0.18,0.93-0.37,1.86-0.54,2.79c-1.76,9.26-3.07,19.25-4.24,32.42
		c-0.47,5.31-0.76,10.07,0.55,14.59c1.85,6.43,6.49,11.19,11.4,16.24c3.34,3.43,6.79,6.98,9.27,11.1L229.57,230.57z"/>
	<path d="M231.03,253.9c-7.47-3.98-14.59-8.69-21.18-14c-3.17-2.56-6.42-5.43-8.73-9.04c-4.71-7.37-5.36-17.57-1.93-30.32l0.96,0.26
		c-3.36,12.46-2.75,22.39,1.8,29.52c2.24,3.5,5.42,6.3,8.52,8.81c6.53,5.28,13.6,9.95,21.02,13.9L231.03,253.9z"/>
	<path d="M111.66,315.92c-10.35-14.13-21.15-28.22-32.1-41.89l0.78-0.63c10.96,13.68,21.77,27.79,32.13,41.93L111.66,315.92z"/>
	<path d="M102.3,321.42l-0.59-0.81c3.99-2.93,8.27-5.61,12.41-8.19c7.29-4.56,14.84-9.28,20.93-15.48
		c4.41-4.49,8.08-9.79,11.63-14.91c0.76-1.09,1.51-2.18,2.27-3.26c7.77-11.04,16.46-21.57,25.83-31.3l0.72,0.69
		c-9.33,9.69-17.99,20.18-25.74,31.18c-0.76,1.08-1.52,2.17-2.27,3.26c-3.57,5.15-7.27,10.48-11.74,15.04
		c-6.17,6.29-13.77,11.03-21.11,15.63C110.53,315.84,106.27,318.51,102.3,321.42z"/>
	<path d="M276.06,270.96c-12.83-3.26-24.79-12.93-32.82-26.52c-3.98-6.74-6.92-14.12-9.76-21.25c-6.43-16.15-13.09-32.86-14.34-50.6
		c-0.47-6.65-0.16-13.41,0.15-19.95c0.2-4.42,0.42-8.98,0.38-13.47c-0.13-17.71-4.11-35.57-11.53-51.65l0.91-0.42
		c7.48,16.21,11.5,34.21,11.62,52.07c0.03,4.51-0.18,9.09-0.38,13.52c-0.3,6.51-0.61,13.24-0.15,19.83
		c1.24,17.59,7.86,34.22,14.27,50.3c2.83,7.1,5.75,14.44,9.7,21.11c7.9,13.36,19.63,22.86,32.21,26.06L276.06,270.96z"/>
	<path d="M222.55,75.72c-3.45-10.18-7.37-21.71-15.41-29.94c-3.58-3.66-8.2-6.91-14.56-10.24c-3.76-1.97-8.77-4.33-14.06-5.11
		c-6.15-0.9-12.38,0.29-18.4,1.44l-0.19-0.98c6.1-1.17,12.41-2.37,18.73-1.45c5.45,0.8,10.55,3.2,14.38,5.21
		c6.45,3.38,11.16,6.69,14.81,10.43c8.2,8.39,12.16,20.04,15.64,30.32L222.55,75.72z"/>
	<path d="M112.14,191.13c-2.21,0-3.82-0.59-4.8-1.77c-0.29-0.35-0.5-0.72-0.62-1.1c-0.17-0.56-0.15-1.12-0.13-1.66
		c0.01-0.34,0.03-0.66-0.01-0.96l0.99-0.12c0.04,0.38,0.03,0.76,0.01,1.12c-0.02,0.48-0.04,0.93,0.08,1.33
		c0.08,0.25,0.22,0.51,0.43,0.75c0.81,0.96,2.23,1.44,4.21,1.41c1.36-0.02,2.26-0.29,2.83-0.84c0.27-0.26,0.5-0.62,0.7-1.1
		c0.25-0.59,0.39-1.2,0.44-1.83l1,0.07c-0.05,0.74-0.23,1.46-0.51,2.14c-0.25,0.61-0.56,1.07-0.93,1.43
		c-1.01,0.98-2.49,1.11-3.51,1.13C112.27,191.13,112.2,191.13,112.14,191.13z"/>
	<path d="M112.23,194.02c-0.24,0-0.5-0.01-0.75-0.02c-1.57-0.08-5.36-0.56-6.7-3.27c-0.42-0.84-0.63-1.74-0.84-2.61
		c-0.12-0.49-0.25-1.04-0.18-1.63c0.14-1.17,1.04-2.02,1.69-2.64l0.69,0.72c-0.7,0.67-1.29,1.28-1.39,2.03
		c-0.05,0.41,0.06,0.85,0.16,1.28c0.2,0.82,0.4,1.66,0.76,2.4c1.11,2.24,4.46,2.64,5.85,2.71c2.43,0.12,4.06-0.38,5.59-1.74
		c0.72-0.64,1.24-1.27,1.59-1.95c0.58-1.11,0.72-2.45,0.39-3.66l0.96-0.26c0.4,1.45,0.23,3.05-0.47,4.38
		c-0.41,0.78-1,1.51-1.81,2.23C116.2,193.41,114.55,194.02,112.23,194.02z"/>
	<path d="M104.99,159.93l-0.92-0.39c1.5-3.55,1.97-7.42,2.39-11.75c0.37-3.84,0.62-7.29-0.13-10.59c-0.99-4.4-3.75-8.35-6.19-11.83
		l0.82-0.57c2.49,3.56,5.31,7.59,6.34,12.18c0.78,3.45,0.53,6.98,0.15,10.91C107.03,152.3,106.55,156.25,104.99,159.93z"/>
	<path d="M127.45,148.92c-3.54-3.1-4.87-8.53-3.18-12.92c0.37-0.95,0.85-1.83,1.31-2.68l4.17-7.64l0.88,0.48l-4.17,7.64
		c-0.45,0.82-0.91,1.67-1.26,2.56c-1.55,4.01-0.33,8.98,2.9,11.81L127.45,148.92z"/>
</g>
<g id="briller">
	<path class="st3" d="M157.92,168.67c-8.43,0-17.38-4.52-24.67-12.66c-8.14-9.09-12.04-20.19-9.71-27.63
		c2.56-8.16,13.66-14.82,28.27-16.97c14.72-2.17,27.47,1.2,32.48,8.58c4.29,6.31,4.29,17.13,0,27.57
		c-4.57,11.13-12.79,18.86-21.99,20.68C160.86,168.53,159.4,168.67,157.92,168.67z M160.46,111.77c-2.72,0-5.57,0.21-8.5,0.64
		c-11.66,1.72-24.67,7.41-27.46,16.28l0,0c-2.24,7.11,1.58,17.83,9.5,26.66c8.33,9.3,18.84,13.75,28.11,11.92
		c8.87-1.75,16.82-9.26,21.26-20.07c4.16-10.14,4.2-20.59,0.1-26.63C179.65,114.94,171.04,111.77,160.46,111.77z"/>
	<path class="st3" d="M75.78,172.84c-0.69,0-1.37-0.03-2.06-0.09c-9.47-0.87-18.56-7.8-24.33-18.54
		c-5.41-10.08-6.55-20.98-2.89-27.79c4.28-7.96,16.78-12.69,31.85-12.05c14.95,0.64,26.83,6.19,30.27,14.14l0,0
		c3.14,7.25,0.37,18.85-6.89,28.86C94.62,167.18,85.06,172.84,75.78,172.84z M75.63,115.31c-13.47,0-24.4,4.42-28.24,11.58
		c-3.5,6.52-2.37,17.06,2.89,26.84c5.61,10.44,14.41,17.18,23.54,18.02c9.54,0.88,19.67-4.72,27.1-14.96
		c7.06-9.74,9.78-20.94,6.78-27.88c-3.74-8.65-17.46-13.03-29.39-13.54C77.41,115.33,76.51,115.31,75.63,115.31z"/>
	<path class="st3" d="M109.76,137.38l-1-0.09c0-0.06,0.58-5.5,7.11-6.24c5.46-0.61,8.27,4.35,8.29,4.4l-0.87,0.49
		c-0.1-0.18-2.54-4.44-7.31-3.89C110.26,132.69,109.77,137.34,109.76,137.38z"/>
	<rect x="182.8" y="115" transform="matrix(0.7929 -0.6093 0.6093 0.7929 -30.8246 140.301)" class="st3" width="16.4" height="1"/>
</g>
</svg>
