<?xml version="1.0" encoding="utf-8"?>
<!-- Generator: Adobe Illustrator 24.1.1, SVG Export Plug-In . SVG Version: 6.00 Build 0)  -->
<svg version="1.1" id="Layer_1" xmlns="http://www.w3.org/2000/svg" xmlns:xlink="http://www.w3.org/1999/xlink" x="0px" y="0px"
	 viewBox="0 0 50 50" style="enable-background:new 0 0 50 50;" xml:space="preserve">
<style type="text/css">
	.st0{fill:#E83A3A;}
</style>
<path class="st0" d="M43.89,29.02l-4.55-4.55l4.55-4.55c0.58-0.59,0.58-1.54,0-2.13l-17.1-17.1c-0.59-0.58-1.54-0.58-2.12,0
	l-17.1,17.1c-0.59,0.59-0.59,1.54,0,2.13l4.55,4.55l-4.55,4.55c-0.29,0.28-0.44,0.66-0.44,1.06c0,0.39,0.15,0.78,0.44,1.06
	l17.1,17.1c0.29,0.29,0.67,0.44,1.06,0.44c0.38,0,0.76-0.15,1.06-0.44l17.1-17.1c0.28-0.28,0.44-0.67,0.44-1.06
	C44.33,29.68,44.17,29.3,43.89,29.02z M10.75,18.85L25.73,3.88L40.7,18.85l-3.49,3.49L26.79,11.92c-0.59-0.59-1.54-0.59-2.12,0
	L14.25,22.35L10.75,18.85z M35.09,24.47l-9.36,9.36l-9.36-9.36l9.36-9.37L35.09,24.47z M25.73,45.05L10.75,30.08l3.49-3.49
	l10.43,10.43c0.29,0.29,0.67,0.44,1.06,0.44c0.38,0,0.76-0.15,1.06-0.44l10.43-10.43l3.48,3.49L25.73,45.05z"/>
</svg>
